<svg width="24" height="24" viewBox="0 0 24 24" fill="none" xmlns="http://www.w3.org/2000/svg">
<path d="M11.9999 0.799805C6.03678 0.799805 1.15428 5.49199 0.830527 11.3786C0.804277 11.7811 0.994589 12.1661 1.33146 12.3892C1.66834 12.6101 2.09928 12.6342 2.45803 12.4504C2.81678 12.2667 3.05084 11.9036 3.06615 11.5011C3.32646 6.77824 7.20709 3.0398 11.9999 3.0398C14.568 3.0398 16.8715 4.11824 18.5012 5.83981H17.0399C16.6352 5.83324 16.2612 6.04543 16.0577 6.39543C15.8521 6.74324 15.8521 7.17637 16.0577 7.52418C16.2612 7.87418 16.6352 8.08637 17.0399 8.07981H20.5465C20.6733 8.10168 20.8024 8.10168 20.9315 8.07981H22.6399V2.4798C22.6443 2.17793 22.5262 1.88699 22.3118 1.67262C22.0974 1.45824 21.8065 1.34012 21.5024 1.34449C20.8855 1.35324 20.3912 1.86074 20.3999 2.4798V4.59512C18.3458 2.26762 15.3402 0.799805 11.9999 0.799805ZM22.0974 11.4245C21.4783 11.3982 20.9577 11.8795 20.9337 12.4986C20.6733 17.2214 16.7927 20.9598 11.9999 20.9598C9.43178 20.9598 7.13053 19.8814 5.49865 18.1598H6.9599C7.36459 18.1664 7.73865 17.9542 7.94209 17.6042C8.14771 17.2564 8.14771 16.8232 7.94209 16.4754C7.73865 16.1254 7.36459 15.9132 6.9599 15.9198H3.4424C3.32428 15.9023 3.20615 15.9023 3.08803 15.9198H1.3599V21.5198C1.35334 21.9245 1.56553 22.2986 1.91553 22.502C2.26334 22.7076 2.69646 22.7076 3.04428 22.502C3.39428 22.2986 3.60646 21.9245 3.5999 21.5198V19.4045C5.65396 21.732 8.65959 23.1998 11.9999 23.1998C17.963 23.1998 22.8455 18.5076 23.1693 12.6211C23.1912 12.3192 23.0883 12.0217 22.8871 11.7964C22.6837 11.5711 22.3993 11.4376 22.0974 11.4245Z" fill="white"/>
</svg>
