<svg width="26" height="26" viewBox="0 0 26 26" fill="none" xmlns="http://www.w3.org/2000/svg">
<path d="M1.08203 4.33398V10.834H7.58203" stroke="white" stroke-width="2" stroke-linecap="round" stroke-linejoin="round"/>
<path d="M24.918 21.666V15.166H18.418" stroke="white" stroke-width="2" stroke-linecap="round" stroke-linejoin="round"/>
<path d="M22.1962 9.74939C21.6468 8.19674 20.713 6.80858 19.4819 5.71443C18.2509 4.62028 16.7628 3.8558 15.1564 3.49234C13.55 3.12887 11.8777 3.17826 10.2956 3.6359C8.71344 4.09353 7.27301 4.9445 6.1087 6.10939L1.08203 10.8327M24.9154 15.1661L19.8887 19.8894C18.7244 21.0543 17.284 21.9052 15.7018 22.3629C14.1197 22.8205 12.4474 22.8699 10.841 22.5064C9.23462 22.143 7.74648 21.3785 6.51545 20.2844C5.28443 19.1902 4.35063 17.802 3.8012 16.2494" stroke="white" stroke-width="2" stroke-linecap="round" stroke-linejoin="round"/>
</svg>
