<!DOCTYPE svg PUBLIC "-//W3C//DTD SVG 1.1//EN" "http://www.w3.org/Graphics/SVG/1.1/DTD/svg11.dtd">
<!-- Uploaded to: SVG Repo, www.svgrepo.com, Transformed by: SVG Repo Mixer Tools -->
<svg fill="#B7BFDE" width="800px" height="800px" viewBox="0 0 32 32" version="1.1" xmlns="http://www.w3.org/2000/svg" stroke="#B7BFDE">
<g id="SVGRepo_bgCarrier" stroke-width="0"/>
<g id="SVGRepo_tracerCarrier" stroke-linecap="round" stroke-linejoin="round" stroke="#CCCCCC" stroke-width="0.32"/>
<g id="SVGRepo_iconCarrier"> <title>eye</title> <path d="M30.941 15.177c-9.787-11.183-20.096-11.187-29.882 0-0.192 0.219-0.31 0.507-0.31 0.823s0.117 0.605 0.311 0.825l-0.001-0.001c4.893 5.591 9.919 8.427 14.939 8.427h0.001c5.021 0 10.047-2.836 14.941-8.427 0.192-0.219 0.309-0.507 0.309-0.823s-0.117-0.604-0.31-0.825l0.001 0.001zM3.682 16c8.299-8.961 16.336-8.961 24.637 0-8.301 8.961-16.34 8.961-24.637 0zM16 10.75c-2.899 0-5.25 2.351-5.25 5.25s2.351 5.25 5.25 5.25c2.899 0 5.25-2.351 5.25-5.25v0c-0.004-2.898-2.352-5.246-5.25-5.25h-0zM16 18.75c-1.519 0-2.75-1.231-2.75-2.75s1.231-2.75 2.75-2.75c1.519 0 2.75 1.231 2.75 2.75v0c-0.002 1.518-1.232 2.748-2.75 2.75h-0z"/> </g>
</svg>