<svg width="918" height="919" viewBox="0 0 918 919" fill="none" xmlns="http://www.w3.org/2000/svg">
<g clip-path="url(#clip0_913_2259)">
<path d="M809.903 757.95L809.399 757.069L1085.05 597.989C1088.23 596.163 1089.96 593.738 1089.96 591.219C1089.96 588.7 1088.2 586.275 1085.05 584.449L1036.52 556.393L1037.03 555.511L1085.55 583.567C1089.05 585.583 1090.97 588.322 1090.97 591.219C1090.97 594.116 1089.05 596.856 1085.55 598.871L809.903 757.95Z" fill="#42E8E0"/>
<path d="M450.431 797.027C448.006 797.027 445.424 796.429 443.44 795.295L122.415 609.954C120.4 608.789 119.235 607.183 119.235 605.609C119.235 604.255 120.054 603.027 121.565 602.145L313.141 491.558C316.321 489.732 321.895 489.952 325.547 492.062L646.572 677.403C648.587 678.568 649.753 680.174 649.753 681.748C649.753 683.102 648.934 684.33 647.422 685.212L455.847 795.799C454.398 796.649 452.446 797.059 450.431 797.059V797.027ZM122.951 609.01L443.975 794.351C447.345 796.303 452.414 796.523 455.311 794.855L646.887 684.267C648.052 683.606 648.682 682.724 648.682 681.78C648.682 680.583 647.737 679.355 646.037 678.379L325.012 493.038C321.674 491.117 316.573 490.865 313.676 492.534L122.1 603.121C120.967 603.783 120.306 604.664 120.306 605.609C120.306 606.806 121.25 608.034 122.951 609.01Z" fill="#42E8E0"/>
<path d="M649.217 649.693L631.552 647.142L325.295 470.335C321.769 468.319 316.479 468.099 313.424 469.831L131.043 575.128L119.802 573.522V588.416H119.833C119.833 589.77 120.809 591.156 122.699 592.258L443.723 777.599C447.25 779.614 452.54 779.835 455.595 778.103L647.17 667.515C648.556 666.697 649.217 665.626 649.185 664.493H649.217V649.724V649.693Z" fill="url(#paint0_linear_913_2259)"/>
<path d="M122.699 577.459L443.723 762.8C447.25 764.815 452.54 765.035 455.595 763.303L647.17 652.716C650.225 650.953 649.847 647.898 646.32 645.852L325.295 460.511C321.769 458.495 316.479 458.275 313.424 460.007L121.849 570.594C118.794 572.358 119.172 575.412 122.699 577.459Z" fill="url(#paint1_linear_913_2259)"/>
<path opacity="0.3" d="M150.503 581.079L437.426 746.74C440.575 748.567 445.329 748.755 448.037 747.181L619.272 648.339C621.98 646.764 621.665 644.025 618.516 642.199L331.593 476.538C328.444 474.712 323.69 474.523 320.982 476.097L149.747 574.939C147.039 576.514 147.354 579.253 150.503 581.079Z" fill="#24126A"/>
<path d="M647.17 651.079L455.595 761.666C452.54 763.429 447.25 763.209 443.723 761.162L122.699 575.821C121.156 574.94 120.243 573.837 119.959 572.735C119.487 574.31 120.4 576.073 122.699 577.427L443.723 762.768C447.25 764.783 452.54 765.004 455.595 763.272L647.17 652.685C648.871 651.708 649.469 650.291 649.06 648.906C648.808 649.725 648.209 650.48 647.17 651.079Z" fill="white"/>
<path d="M439.189 484.725L438.685 483.844L540.865 424.866L272.993 270.195C265.436 265.818 256.052 265.818 248.464 270.195L161.367 320.482L160.863 319.6L247.928 269.313C255.8 264.779 265.593 264.779 273.465 269.313L542.881 424.866L542.125 425.307L439.189 484.725Z" fill="#42E8E0"/>
<path d="M1016.84 567.855L964.983 538.822C953.364 532.336 943.162 518.008 939.604 503.209L894.701 317.679C891.836 305.902 885.443 295.889 878.201 289.024L871.935 308.264C870.392 313.05 867.464 316.388 863.465 317.899C858.647 319.757 852.57 318.781 846.366 315.191L839.029 310.972L832.574 330.873C831.031 335.659 828.103 338.997 824.104 340.508C819.286 342.366 813.209 341.39 807.006 337.832L797.654 332.416C786.853 326.181 776.966 312.641 773.124 298.786C769.629 286.19 762.418 276.051 754.64 269.659L750.327 278.791C748.532 282.632 745.635 285.246 741.982 286.379C737.322 287.828 731.528 286.789 725.671 283.42L720.79 280.586L710.966 301.399C709.171 305.241 706.274 307.855 702.622 308.988C697.961 310.437 692.167 309.397 686.31 306.028L675.604 299.856C663.891 293.086 653.751 278.507 650.414 263.613L605.543 63.2208C602.74 50.7514 595.876 40.1083 588.161 33.0864L523.484 209.863C521.846 214.334 518.918 217.451 515.045 218.868C510.259 220.6 504.276 219.624 498.167 216.097L491.523 212.256L484.123 232.471C482.486 236.943 479.557 240.06 475.684 241.477C470.898 243.209 464.915 242.233 458.806 238.706L421.178 216.979L421.933 216.538L461.546 193.772L461.798 193.929L490.956 210.776L556.011 32.9919C558.499 26.1589 563.6 22.6007 570.276 23.073C575.66 23.4194 581.863 26.4108 587.657 31.386L595.34 10.3832C597.702 3.92807 602.362 0.401367 608.503 0.401367C608.88 0.401367 609.227 0.401367 609.605 0.432856C622.704 1.28304 640.81 17.9089 645.848 40.3602L690.719 240.753C693.962 255.174 704.101 269.785 715.437 276.335L720.318 279.137L724.884 269.47C727.655 263.613 732.599 260.653 738.896 261.189C743.588 261.598 749.004 263.991 754.2 268.053L764.213 246.861C766.984 241.005 771.928 238.045 778.225 238.58C790.411 239.619 807.352 254.167 813.366 275.862C817.145 289.497 826.843 302.785 837.424 308.894L838.368 309.46L845.044 288.961C847.374 281.814 852.381 278.004 859.088 278.287C864.85 278.507 871.526 281.656 877.634 287.072L884.373 266.353C886.703 259.205 891.71 255.395 898.417 255.678C911.61 256.182 929.401 272.021 934.912 294.787L979.814 480.317C983.341 494.864 993.323 508.908 1004.72 515.269L1056.58 544.301L1056.08 545.183L1004.22 516.151C992.599 509.664 982.396 495.337 978.838 480.537L933.936 295.007C928.614 273.028 910.918 257.158 898.385 256.686C892.119 256.465 887.553 259.898 885.349 266.636L878.453 287.796C885.979 294.724 892.591 305.021 895.583 317.364L940.485 502.894C944.012 517.442 953.994 531.485 965.393 537.846L1017.25 566.878L1016.75 567.76L1016.84 567.855ZM755.081 268.777C763.079 275.296 770.511 285.655 774.1 298.565C777.91 312.2 787.577 325.488 798.158 331.597L807.51 337.013C813.429 340.445 819.223 341.39 823.726 339.626C827.41 338.209 830.118 335.092 831.598 330.621L838.148 310.531L837.014 309.87C826.214 303.635 816.326 290.095 812.485 276.24C806.565 254.954 790.096 240.69 778.225 239.682C772.305 239.178 767.834 241.855 765.189 247.365L755.081 268.777ZM839.376 310.059L846.87 314.404C852.79 317.836 858.552 318.781 863.087 317.018C866.771 315.601 869.479 312.483 870.959 308.012L877.351 288.332C871.274 282.853 864.693 279.609 859.119 279.42C852.727 279.169 848.287 282.632 846.083 289.371L839.344 310.059H839.376ZM588.539 32.1102C596.568 39.2896 603.685 50.1846 606.55 63.0004L651.421 263.393C654.665 277.815 664.804 292.425 676.14 298.975L686.846 305.147C692.451 308.39 697.93 309.397 702.338 308.012C705.707 306.973 708.384 304.517 710.053 300.959L719.909 280.082L714.965 277.216C703.22 270.446 693.112 255.867 689.774 240.973L644.903 40.5806C639.959 18.5387 622.326 2.25919 609.605 1.44049C603.307 1.03114 598.741 4.24296 596.348 10.6981L588.539 32.0787V32.1102ZM721.231 279.704L726.206 282.569C731.811 285.813 737.29 286.82 741.699 285.435C745.068 284.364 747.744 281.94 749.413 278.381L753.822 269.029C748.721 265.03 743.431 262.669 738.865 262.259C732.945 261.755 728.474 264.432 725.829 269.942L721.231 279.672V279.704ZM423.256 217.01L459.342 237.856C465.167 241.225 470.866 242.17 475.338 240.564C478.928 239.273 481.636 236.344 483.179 232.156L490.641 211.783L461.577 195L423.256 217.042V217.01ZM491.901 211.311L498.702 215.247C504.528 218.616 510.227 219.592 514.698 217.955C518.288 216.664 520.996 213.736 522.539 209.548L587.374 32.3936C581.674 27.4499 575.566 24.4585 570.276 24.1122C563.946 23.7028 559.381 26.9146 557.019 33.3698L491.901 211.311Z" fill="#42E8E0"/>
<path d="M601.969 2.07422L562.282 24.8398L562.784 25.7139L602.471 2.94826L601.969 2.07422Z" fill="#42E8E0"/>
<path d="M730.174 264.495L729.67 263.613L769.786 240.469L770.29 241.351L730.174 264.495Z" fill="#42E8E0"/>
<path d="M892.507 256.867L850.654 280.855L851.155 281.73L893.008 257.741L892.507 256.867Z" fill="#42E8E0"/>
<path d="M1016.84 567.855L964.983 538.822C953.364 532.336 943.162 518.008 939.604 503.209L894.701 317.679C891.836 305.902 885.443 295.889 878.201 289.024L871.935 308.264C870.392 313.05 867.464 316.388 863.465 317.899C858.647 319.757 852.57 318.781 846.366 315.191L839.029 310.972L832.574 330.873C831.031 335.659 828.103 338.997 824.104 340.508C819.286 342.366 813.209 341.39 807.006 337.832L797.654 332.416C786.853 326.181 776.966 312.641 773.124 298.786C769.629 286.19 762.418 276.051 754.64 269.659L750.327 278.791C748.532 282.632 745.635 285.246 741.982 286.379C737.322 287.828 731.528 286.789 725.671 283.42L720.79 280.586L710.966 301.399C709.171 305.241 706.274 307.855 702.622 308.988C697.961 310.437 692.167 309.397 686.31 306.028L675.604 299.856C663.891 293.086 653.751 278.507 650.414 263.613L605.543 63.2208C602.74 50.7514 595.876 40.1083 588.161 33.0864L523.484 209.863C521.846 214.334 518.918 217.451 515.045 218.868C510.259 220.6 504.276 219.624 498.167 216.097L491.523 212.256L484.123 232.471C482.486 236.943 479.557 240.06 475.684 241.477C470.898 243.209 464.915 242.233 458.806 238.706L421.178 216.979L421.933 216.538L461.546 193.772L461.798 193.929L490.956 210.776L556.011 32.9919C558.499 26.1589 563.6 22.6007 570.276 23.073C575.66 23.4194 581.863 26.4108 587.657 31.386L595.34 10.3832C597.702 3.92807 602.362 0.401367 608.503 0.401367C608.88 0.401367 609.227 0.401367 609.605 0.432856C622.704 1.28304 640.81 17.9089 645.848 40.3602L690.719 240.753C693.962 255.174 704.101 269.785 715.437 276.335L720.318 279.137L724.884 269.47C727.655 263.613 732.599 260.653 738.896 261.189C743.588 261.598 749.004 263.991 754.2 268.053L764.213 246.861C766.984 241.005 771.928 238.045 778.225 238.58C790.411 239.619 807.352 254.167 813.366 275.862C817.145 289.497 826.843 302.785 837.424 308.894L838.368 309.46L845.044 288.961C847.374 281.814 852.381 278.004 859.088 278.287C864.85 278.507 871.526 281.656 877.634 287.072L884.373 266.353C886.703 259.205 891.71 255.395 898.417 255.678C911.61 256.182 929.401 272.021 934.912 294.787L979.814 480.317C983.341 494.864 993.323 508.908 1004.72 515.269L1056.58 544.301L1056.08 545.183L1004.22 516.151C992.599 509.664 982.396 495.337 978.838 480.537L933.936 295.007C928.614 273.028 910.918 257.158 898.385 256.686C892.119 256.465 887.553 259.898 885.349 266.636L878.453 287.796C885.979 294.724 892.591 305.021 895.583 317.364L940.485 502.894C944.012 517.442 953.994 531.485 965.393 537.846L1017.25 566.878L1016.75 567.76L1016.84 567.855ZM755.081 268.777C763.079 275.296 770.511 285.655 774.1 298.565C777.91 312.2 787.577 325.488 798.158 331.597L807.51 337.013C813.429 340.445 819.223 341.39 823.726 339.626C827.41 338.209 830.118 335.092 831.598 330.621L838.148 310.531L837.014 309.87C826.214 303.635 816.326 290.095 812.485 276.24C806.565 254.954 790.096 240.69 778.225 239.682C772.305 239.178 767.834 241.855 765.189 247.365L755.081 268.777ZM839.376 310.059L846.87 314.404C852.79 317.836 858.552 318.781 863.087 317.018C866.771 315.601 869.479 312.483 870.959 308.012L877.351 288.332C871.274 282.853 864.693 279.609 859.119 279.42C852.727 279.169 848.287 282.632 846.083 289.371L839.344 310.059H839.376ZM588.539 32.1102C596.568 39.2896 603.685 50.1846 606.55 63.0004L651.421 263.393C654.665 277.815 664.804 292.425 676.14 298.975L686.846 305.147C692.451 308.39 697.93 309.397 702.338 308.012C705.707 306.973 708.384 304.517 710.053 300.959L719.909 280.082L714.965 277.216C703.22 270.446 693.112 255.867 689.774 240.973L644.903 40.5806C639.959 18.5387 622.326 2.25919 609.605 1.44049C603.307 1.03114 598.741 4.24296 596.348 10.6981L588.539 32.0787V32.1102ZM721.231 279.704L726.206 282.569C731.811 285.813 737.29 286.82 741.699 285.435C745.068 284.364 747.744 281.94 749.413 278.381L753.822 269.029C748.721 265.03 743.431 262.669 738.865 262.259C732.945 261.755 728.474 264.432 725.829 269.942L721.231 279.672V279.704ZM423.256 217.01L459.342 237.856C465.167 241.225 470.866 242.17 475.338 240.564C478.928 239.273 481.636 236.344 483.179 232.156L490.641 211.783L461.577 195L423.256 217.042V217.01ZM491.901 211.311L498.702 215.247C504.528 218.616 510.227 219.592 514.698 217.955C518.288 216.664 520.996 213.736 522.539 209.548L587.374 32.3936C581.674 27.4499 575.566 24.4585 570.276 24.1122C563.946 23.7028 559.381 26.9146 557.019 33.3698L491.901 211.311Z" fill="#42E8E0"/>
<path style="mix-blend-mode:lighten" opacity="0.5" d="M461.577 194.402L498.419 215.688C509.503 222.08 519.359 219.687 522.98 209.737L595.876 10.5723C604.189 -12.1623 638.196 8.39963 645.407 40.5178L690.278 240.91C693.553 255.552 703.692 270.163 715.217 276.807L725.923 282.979C736.346 288.993 745.761 287.261 749.854 278.571L764.685 247.114C773.88 227.622 804.55 246.011 812.926 276.051C816.767 289.906 826.434 303.163 837.234 309.398L846.587 314.814C857.922 321.363 867.967 318.687 871.399 308.138L884.94 266.573C892.56 243.115 926.693 262.637 934.502 294.976L979.405 480.506C982.932 495.085 993.134 509.381 1004.56 515.805L1056.43 544.837L461.577 194.402Z" fill="url(#paint2_linear_913_2259)"/>
<path style="mix-blend-mode:lighten" opacity="0.5" d="M422.248 216.444L459.09 237.73C470.174 244.122 480.03 241.729 483.651 231.779L556.515 32.6456C564.828 9.91091 598.836 30.4729 606.046 62.5911L650.917 262.984C654.192 277.626 664.332 292.236 675.856 298.88L686.562 305.052C696.985 311.066 706.4 309.335 710.494 300.644L725.325 269.187C734.519 249.695 765.189 268.085 773.565 298.125C777.438 311.98 787.073 325.236 797.874 331.471L807.226 336.887C818.562 343.437 828.607 340.76 832.039 330.211L845.579 288.647C853.199 265.188 887.333 284.711 895.142 317.049L940.044 502.579C943.571 517.158 953.773 531.454 965.204 537.878L1017.07 566.91L422.217 216.507L422.248 216.444Z" fill="url(#paint3_linear_913_2259)"/>
<path d="M137.782 514.891C132.901 514.891 128.02 513.82 124.273 511.679L61.9891 475.719C58.2734 473.578 56.2582 470.713 56.2582 467.595C56.2582 464.478 58.3049 461.613 61.9891 459.503L124.273 423.543C131.704 419.229 143.828 419.261 151.259 423.543L213.543 459.503C217.259 461.644 219.274 464.509 219.274 467.627C219.274 470.744 217.227 473.61 213.543 475.719L151.259 511.679C147.543 513.82 142.662 514.891 137.75 514.891H137.782ZM124.84 510.734C131.988 514.859 143.607 514.859 150.755 510.734L213.039 474.775C216.377 472.854 218.235 470.303 218.235 467.627C218.235 464.95 216.377 462.4 213.039 460.447L150.755 424.488C143.607 420.363 131.988 420.363 124.84 424.488L62.5559 460.447C59.2181 462.368 57.3603 464.919 57.3603 467.595C57.3603 470.272 59.2181 472.822 62.5559 474.775L124.84 510.734Z" fill="#42E8E0"/>
<path d="M324.697 402.698L365.286 161.937L362.011 160.552L366.923 157.749C367.868 157.151 369.222 157.182 370.702 158.033L695.033 345.263C697.709 346.806 699.724 350.742 699.252 353.513L658.349 596.194C658.128 597.454 657.499 598.304 656.648 598.65L651.862 601.421L651.043 596.95L651.327 597.045L328.98 410.948C326.303 409.405 324.288 405.469 324.76 402.698H324.697Z" fill="url(#paint4_linear_913_2259)"/>
<path d="M693.206 351.875L698.528 349.514C699.126 350.868 699.41 352.316 699.221 353.513L658.317 596.194C658.097 597.454 657.467 598.304 656.617 598.65L651.831 601.421L651.012 596.95L651.295 597.044L634.984 587.629L693.238 351.875H693.206Z" fill="url(#paint5_linear_913_2259)"/>
<path d="M323.815 413.876L648.146 601.107C650.666 602.555 652.807 601.705 653.248 599.123L694.151 356.441C694.623 353.671 692.608 349.734 689.932 348.192L365.601 160.961C363.082 159.513 360.94 160.363 360.5 162.945L319.596 405.626C319.124 408.397 321.139 412.333 323.815 413.876Z" fill="#24126A"/>
<g opacity="0.51">
<path d="M364.53 165.496L690.372 353.513L649.217 596.824L323.595 408.901L364.53 165.496Z" fill="#453C9E"/>
</g>
<path d="M119.959 528.746L137.656 538.004L315.125 435.54C318.085 433.84 323.28 434.029 326.712 436.013L632.812 612.726C635.74 611.088 649.091 604.665 649.091 604.665L642.605 615.182C642.321 615.938 641.754 616.63 640.778 617.197L453.863 725.108C450.903 726.808 445.707 726.62 442.275 724.636L129.059 543.798C127.642 542.979 126.792 542.003 126.446 540.995L120.022 528.746H119.959Z" fill="url(#paint6_linear_913_2259)"/>
<path d="M122.699 531.674L443.723 717.015C447.25 719.031 452.54 719.251 455.595 717.519L647.17 606.932C650.225 605.168 649.847 602.114 646.32 600.067L325.295 414.726C321.769 412.711 316.479 412.491 313.424 414.223L121.849 524.81C118.794 526.573 119.172 529.628 122.699 531.674Z" fill="url(#paint7_linear_913_2259)"/>
<path d="M122.699 530.226L443.723 715.567C447.25 717.582 452.54 717.803 455.595 716.071L647.17 605.483C648.241 604.854 648.871 604.066 649.091 603.248C649.438 604.602 648.839 605.956 647.17 606.932L455.595 717.519C452.54 719.283 447.25 719.062 443.723 717.016L122.699 531.674C120.432 530.352 119.487 528.62 119.928 527.077C120.211 528.211 121.124 529.344 122.699 530.257V530.226Z" fill="white"/>
<g opacity="0.15">
<mask id="mask0_913_2259" style="mask-type:luminance" maskUnits="userSpaceOnUse" x="323" y="165" width="368" height="432">
<path d="M690.372 353.513L364.53 165.496L323.595 408.901L649.217 596.824L690.372 353.513Z" fill="white"/>
</mask>
<g mask="url(#mask0_913_2259)">
<path d="M323.438 412.302L341.134 421.559L518.603 319.096C521.563 317.396 526.759 317.585 530.191 319.568L836.29 496.281C839.218 494.644 852.57 488.22 852.57 488.22L846.083 498.738C845.799 499.493 845.233 500.186 844.257 500.753L657.341 608.664C654.381 610.364 649.186 610.175 645.753 608.191L332.538 427.353C331.121 426.535 330.271 425.558 329.924 424.551L323.501 412.302H323.438Z" fill="url(#paint8_linear_913_2259)"/>
<path d="M326.177 415.199L647.202 600.54C650.728 602.555 656.019 602.776 659.073 601.044L850.649 490.456C853.703 488.693 853.325 485.639 849.798 483.592L528.774 298.251C525.247 296.235 519.957 296.015 516.903 297.747L325.327 408.334C322.273 410.098 322.65 413.152 326.177 415.199Z" fill="url(#paint9_linear_913_2259)"/>
<path d="M849.767 483.592L528.742 298.251C526.475 296.96 523.484 296.393 520.807 296.645C522.791 296.802 524.775 297.338 526.381 298.251L847.405 483.592C850.932 485.607 851.31 488.693 848.256 490.456L656.68 601.044C655.609 601.674 654.224 602.02 652.744 602.177C655.074 602.366 657.404 602.02 659.042 601.044L850.617 490.456C853.672 488.693 853.294 485.639 849.767 483.592Z" fill="white"/>
<g opacity="0.5">
<path d="M494.325 383.301L484.029 377.35C483.21 376.877 481.793 376.909 480.911 377.444L469.481 384.12C468.568 384.655 468.536 385.442 469.355 385.946L479.652 391.897C480.471 392.37 481.887 392.338 482.769 391.803L494.199 385.127C495.113 384.592 495.144 383.805 494.325 383.301Z" fill="#24126A"/>
<path d="M510.196 392.464L499.899 386.513C499.08 386.04 497.663 386.072 496.782 386.607L485.351 393.283C484.438 393.818 484.407 394.605 485.225 395.109L495.522 401.06C496.341 401.533 497.758 401.501 498.639 400.966L510.07 394.29C510.983 393.755 511.014 392.968 510.196 392.464Z" fill="#24126A"/>
<path d="M526.097 401.659L515.8 395.708C514.982 395.235 513.565 395.267 512.683 395.802L501.253 402.478C500.34 403.013 500.308 403.8 501.127 404.304L511.424 410.255C512.242 410.728 513.659 410.696 514.541 410.161L525.971 403.485C526.884 402.95 526.916 402.163 526.097 401.659Z" fill="#24126A"/>
<path d="M514.006 413.876L503.709 407.925C502.89 407.453 501.473 407.484 500.592 408.019L490.988 413.624C490.074 414.16 490.043 414.947 490.862 415.451L501.158 421.402C501.977 421.874 503.394 421.843 504.276 421.307L513.88 415.703C514.793 415.167 514.824 414.38 514.006 413.876Z" fill="#24126A"/>
<path d="M529.907 423.039L519.611 417.088C518.792 416.616 517.375 416.647 516.493 417.182L506.889 422.787C505.976 423.323 505.945 424.11 506.763 424.614L517.06 430.565C517.879 431.037 519.296 431.006 520.177 430.471L529.781 424.866C530.695 424.33 530.726 423.543 529.907 423.039Z" fill="#24126A"/>
<path d="M545.778 432.202L535.481 426.251C534.662 425.779 533.245 425.81 532.363 426.346L522.759 431.95C521.846 432.486 521.815 433.273 522.634 433.777L532.93 439.728C533.749 440.2 535.166 440.169 536.048 439.634L545.652 434.029C546.565 433.493 546.596 432.706 545.778 432.202Z" fill="#24126A"/>
<path d="M561.679 441.397L551.382 435.446C550.564 434.974 549.147 435.005 548.265 435.54L538.661 441.145C537.748 441.681 537.716 442.468 538.535 442.972L548.832 448.923C549.651 449.395 551.068 449.364 551.949 448.828L561.553 443.224C562.466 442.688 562.498 441.901 561.679 441.397Z" fill="#24126A"/>
<path d="M577.581 450.56L567.284 444.609C566.465 444.137 565.048 444.168 564.167 444.703L554.563 450.308C553.65 450.844 553.618 451.631 554.437 452.135L564.734 458.086C565.552 458.558 566.969 458.527 567.851 457.992L577.455 452.387C578.368 451.851 578.4 451.064 577.581 450.56Z" fill="#24126A"/>
<path d="M593.451 459.723L583.154 453.772C582.336 453.3 580.919 453.331 580.037 453.867L570.433 459.471C569.52 460.007 569.488 460.794 570.307 461.298L580.604 467.249C581.422 467.721 582.839 467.69 583.721 467.155L593.325 461.55C594.238 461.014 594.27 460.227 593.451 459.723Z" fill="#24126A"/>
<path d="M609.353 468.918L599.056 462.967C598.237 462.495 596.82 462.526 595.939 463.061L586.335 468.666C585.421 469.202 585.39 469.989 586.209 470.493L596.505 476.444C597.324 476.916 598.741 476.885 599.623 476.349L609.227 470.745C610.14 470.209 610.171 469.422 609.353 468.918Z" fill="#24126A"/>
<path d="M625.254 478.081L614.958 472.13C614.139 471.658 612.722 471.689 611.84 472.224L602.236 477.829C601.323 478.365 601.292 479.152 602.11 479.656L612.407 485.607C613.226 486.079 614.643 486.048 615.524 485.513L625.128 479.908C626.042 479.372 626.073 478.585 625.254 478.081Z" fill="#24126A"/>
<path d="M641.125 487.276L630.828 481.325C630.009 480.852 628.592 480.884 627.71 481.419L618.106 487.024C617.193 487.559 617.162 488.347 617.981 488.851L628.277 494.802C629.096 495.274 630.513 495.243 631.395 494.707L640.999 489.102C641.912 488.567 641.943 487.78 641.125 487.276Z" fill="#24126A"/>
<path d="M657.026 496.439L646.729 490.488C645.911 490.016 644.494 490.047 643.612 490.582L634.008 496.187C633.095 496.723 633.063 497.51 633.882 498.014L644.179 503.965C644.998 504.437 646.415 504.406 647.296 503.87L656.9 498.266C657.813 497.73 657.845 496.943 657.026 496.439Z" fill="#24126A"/>
<path d="M507.393 426.975L497.096 421.024C496.278 420.552 494.861 420.583 493.979 421.118L484.375 426.723C483.462 427.259 483.43 428.046 484.249 428.55L494.546 434.501C495.364 434.973 496.781 434.942 497.663 434.407L507.267 428.802C508.18 428.266 508.212 427.479 507.393 426.975Z" fill="#24126A"/>
<path d="M491.271 417.655L480.974 411.704C480.156 411.231 478.739 411.263 477.857 411.798L468.253 417.403C467.34 417.938 467.308 418.726 468.127 419.229L478.424 425.181C479.242 425.653 480.659 425.622 481.541 425.086L491.145 419.481C492.058 418.946 492.09 418.159 491.271 417.655Z" fill="#24126A"/>
<path d="M475.086 408.334L452.918 395.55C452.099 395.078 450.682 395.109 449.801 395.644L440.197 401.249C439.284 401.785 439.252 402.572 440.071 403.076L462.239 415.86C463.057 416.332 464.474 416.301 465.356 415.765L474.96 410.16C475.873 409.625 475.905 408.838 475.086 408.334Z" fill="#24126A"/>
<path d="M456.35 414.412L438.37 404.021C437.552 403.548 436.135 403.58 435.253 404.115L425.649 409.72C424.736 410.255 424.704 411.043 425.523 411.546L443.503 421.938C444.322 422.41 445.739 422.378 446.62 421.843L456.224 416.238C457.138 415.703 457.169 414.916 456.35 414.412Z" fill="#24126A"/>
<path d="M523.263 436.138L512.967 430.187C512.148 429.715 510.731 429.746 509.849 430.282L500.245 435.886C499.332 436.422 499.301 437.209 500.119 437.713L510.416 443.664C511.235 444.136 512.652 444.105 513.533 443.57L523.137 437.965C524.051 437.429 524.082 436.642 523.263 436.138Z" fill="#24126A"/>
<path d="M539.165 445.302L528.868 439.351C528.05 438.878 526.633 438.91 525.751 439.445L516.147 445.05C515.234 445.585 515.202 446.373 516.021 446.876L526.318 452.828C527.136 453.3 528.553 453.269 529.435 452.733L539.039 447.128C539.952 446.593 539.984 445.806 539.165 445.302Z" fill="#24126A"/>
<path d="M555.067 454.496L544.77 448.545C543.951 448.073 542.534 448.104 541.653 448.639L532.049 454.244C531.135 454.78 531.104 455.567 531.923 456.071L542.219 462.022C543.038 462.494 544.455 462.463 545.337 461.928L554.941 456.323C555.854 455.787 555.885 455 555.067 454.496Z" fill="#24126A"/>
<path d="M570.937 463.659L560.64 457.708C559.821 457.236 558.404 457.267 557.523 457.803L547.919 463.407C547.006 463.943 546.974 464.73 547.793 465.234L558.09 471.185C558.908 471.657 560.325 471.626 561.207 471.091L570.811 465.486C571.724 464.95 571.755 464.163 570.937 463.659Z" fill="#24126A"/>
<path d="M586.838 472.822L576.542 466.871C575.723 466.399 574.306 466.43 573.424 466.966L563.82 472.571C562.907 473.106 562.876 473.893 563.694 474.397L573.991 480.348C574.81 480.821 576.227 480.789 577.109 480.254L586.712 474.649C587.626 474.114 587.657 473.326 586.838 472.822Z" fill="#24126A"/>
<path d="M602.74 482.017L592.443 476.066C591.625 475.594 590.208 475.625 589.326 476.16L579.722 481.765C578.809 482.301 578.777 483.088 579.596 483.592L589.893 489.543C590.712 490.015 592.129 489.984 593.01 489.449L602.614 483.844C603.527 483.308 603.559 482.521 602.74 482.017Z" fill="#24126A"/>
<path d="M618.61 491.18L608.314 485.229C607.495 484.757 606.078 484.788 605.196 485.324L595.592 490.928C594.679 491.464 594.648 492.251 595.466 492.755L605.763 498.706C606.582 499.178 607.999 499.147 608.88 498.612L618.484 493.007C619.398 492.471 619.429 491.684 618.61 491.18Z" fill="#24126A"/>
<path d="M634.512 500.375L624.215 494.424C623.397 493.952 621.98 493.983 621.098 494.518L611.494 500.123C610.581 500.659 610.549 501.446 611.368 501.95L621.665 507.901C622.483 508.373 623.9 508.342 624.782 507.806L634.386 502.202C635.299 501.666 635.331 500.879 634.512 500.375Z" fill="#24126A"/>
<path d="M650.414 509.538L640.117 503.587C639.298 503.115 637.881 503.146 637 503.681L627.396 509.286C626.482 509.822 626.451 510.609 627.27 511.113L637.566 517.064C638.385 517.536 639.802 517.505 640.684 516.97L650.288 511.365C651.201 510.829 651.232 510.042 650.414 509.538Z" fill="#24126A"/>
<path d="M678.659 525.849L656.207 512.876C655.389 512.404 653.972 512.435 653.09 512.971L643.486 518.575C642.573 519.111 642.542 519.898 643.36 520.402L665.811 533.375C666.63 533.847 668.047 533.816 668.929 533.281L678.533 527.676C679.446 527.14 679.477 526.353 678.659 525.849Z" fill="#24126A"/>
<path d="M649.532 542.853L630.576 531.926C629.757 531.454 628.34 531.486 627.459 532.021L617.855 537.626C616.941 538.161 616.91 538.948 617.729 539.452L636.685 550.379C637.503 550.851 638.92 550.819 639.802 550.284L649.406 544.679C650.319 544.144 650.351 543.357 649.532 542.853Z" fill="#24126A"/>
<path d="M521.059 451.788L510.762 445.837C509.944 445.365 508.527 445.396 507.645 445.931L498.041 451.536C497.128 452.072 497.096 452.859 497.915 453.363L508.212 459.314C509.03 459.786 510.447 459.755 511.329 459.22L520.933 453.615C521.846 453.079 521.878 452.292 521.059 451.788Z" fill="#24126A"/>
<path d="M504.78 442.373L494.483 436.422C493.664 435.95 492.247 435.981 491.365 436.516L481.762 442.121C480.848 442.657 480.817 443.444 481.636 443.948L491.932 449.899C492.751 450.371 494.168 450.34 495.05 449.805L504.654 444.2C505.567 443.664 505.598 442.877 504.78 442.373Z" fill="#24126A"/>
<path d="M488.5 432.99L478.203 427.039C477.385 426.566 475.968 426.598 475.086 427.133L465.482 432.738C464.569 433.273 464.537 434.061 465.356 434.564L475.653 440.516C476.471 440.988 477.888 440.957 478.77 440.421L488.374 434.816C489.287 434.281 489.319 433.494 488.5 432.99Z" fill="#24126A"/>
<path d="M472.22 423.575L461.924 417.624C461.105 417.151 459.688 417.183 458.806 417.718L449.202 423.323C448.289 423.858 448.258 424.646 449.076 425.149L459.373 431.101C460.192 431.573 461.609 431.542 462.491 431.006L472.094 425.401C473.008 424.866 473.039 424.079 472.22 423.575Z" fill="#24126A"/>
<path d="M536.961 460.951L526.664 455C525.845 454.528 524.428 454.559 523.547 455.095L513.943 460.699C513.029 461.235 512.998 462.022 513.817 462.526L524.113 468.477C524.932 468.949 526.349 468.918 527.231 468.383L536.835 462.778C537.748 462.242 537.779 461.455 536.961 460.951Z" fill="#24126A"/>
<path d="M552.862 470.146L542.566 464.195C541.747 463.723 540.33 463.754 539.448 464.289L529.844 469.894C528.931 470.43 528.9 471.217 529.718 471.721L540.015 477.672C540.834 478.144 542.251 478.113 543.133 477.577L552.736 471.973C553.65 471.437 553.681 470.65 552.862 470.146Z" fill="#24126A"/>
<path d="M568.733 479.309L558.436 473.358C557.617 472.886 556.2 472.917 555.319 473.452L545.715 479.057C544.801 479.593 544.77 480.38 545.589 480.884L555.885 486.835C556.704 487.307 558.121 487.276 559.003 486.741L568.607 481.136C569.52 480.6 569.551 479.813 568.733 479.309Z" fill="#24126A"/>
<path d="M584.634 488.472L574.337 482.521C573.519 482.049 572.102 482.08 571.22 482.616L561.616 488.22C560.703 488.756 560.672 489.543 561.49 490.047L571.787 495.998C572.606 496.47 574.023 496.439 574.904 495.904L584.508 490.299C585.421 489.763 585.453 488.976 584.634 488.472Z" fill="#24126A"/>
<path d="M600.536 497.667L590.239 491.716C589.42 491.244 588.003 491.275 587.122 491.81L577.518 497.415C576.605 497.951 576.573 498.738 577.392 499.242L587.689 505.193C588.507 505.665 589.924 505.634 590.806 505.098L600.41 499.494C601.323 498.958 601.355 498.171 600.536 497.667Z" fill="#24126A"/>
<path d="M616.406 506.83L606.109 500.879C605.291 500.407 603.874 500.438 602.992 500.973L593.388 506.578C592.475 507.114 592.443 507.901 593.262 508.405L603.559 514.356C604.378 514.828 605.795 514.797 606.676 514.262L616.28 508.657C617.193 508.121 617.225 507.334 616.406 506.83Z" fill="#24126A"/>
<path d="M632.308 515.993L622.011 510.042C621.192 509.57 619.775 509.601 618.894 510.137L609.29 515.741C608.377 516.277 608.345 517.064 609.164 517.568L619.46 523.519C620.279 523.991 621.696 523.96 622.578 523.425L632.182 517.82C633.095 517.284 633.126 516.497 632.308 515.993Z" fill="#24126A"/>
<path d="M648.209 525.188L637.913 519.236C637.094 518.764 635.677 518.796 634.795 519.331L625.191 524.936C624.278 525.471 624.247 526.258 625.065 526.762L635.362 532.713C636.181 533.186 637.598 533.154 638.48 532.619L648.083 527.014C648.997 526.479 649.028 525.692 648.209 525.188Z" fill="#24126A"/>
<path d="M664.08 534.351L653.783 528.4C652.964 527.928 651.547 527.959 650.666 528.494L641.062 534.099C640.148 534.635 640.117 535.422 640.936 535.926L651.232 541.877C652.051 542.349 653.468 542.318 654.35 541.783L663.954 536.178C664.867 535.642 664.898 534.855 664.08 534.351Z" fill="#24126A"/>
<path d="M482.675 446.53L472.378 440.579C471.559 440.106 470.142 440.138 469.261 440.673L459.657 446.278C458.743 446.813 458.712 447.601 459.531 448.104L469.827 454.056C470.646 454.528 472.063 454.497 472.945 453.961L482.549 448.356C483.462 447.821 483.493 447.034 482.675 446.53Z" fill="#24126A"/>
<path d="M466.868 437.398L456.571 431.447C455.752 430.975 454.335 431.006 453.453 431.541L443.849 437.146C442.936 437.682 442.905 438.469 443.724 438.973L454.02 444.924C454.839 445.396 456.256 445.365 457.138 444.829L466.742 439.225C467.655 438.689 467.686 437.902 466.868 437.398Z" fill="#24126A"/>
<path d="M451.029 428.266L440.732 422.315C439.913 421.843 438.496 421.874 437.615 422.409L428.011 428.014C427.098 428.55 427.066 429.337 427.885 429.841L438.182 435.792C439 436.264 440.417 436.233 441.299 435.698L450.903 430.093C451.816 429.557 451.848 428.77 451.029 428.266Z" fill="#24126A"/>
<path d="M435.222 419.135L424.925 413.184C424.106 412.711 422.689 412.743 421.807 413.278L412.204 418.883C411.29 419.418 411.259 420.206 412.078 420.709L422.374 426.661C423.193 427.133 424.61 427.102 425.492 426.566L435.096 420.961C436.009 420.426 436.04 419.639 435.222 419.135Z" fill="#24126A"/>
<path d="M419.918 428.077L409.621 422.126C408.803 421.654 407.386 421.685 406.504 422.221L403.324 424.078C402.411 424.614 402.379 425.401 403.198 425.905L413.495 431.856C414.313 432.328 415.73 432.297 416.612 431.762L419.792 429.904C420.705 429.368 420.737 428.581 419.918 428.077Z" fill="#24126A"/>
<path d="M440.543 440.012L430.246 434.061C429.428 433.588 428.011 433.62 427.129 434.155L423.949 436.013C423.036 436.548 423.004 437.335 423.823 437.839L434.119 443.791C434.938 444.263 436.355 444.231 437.237 443.696L440.417 441.838C441.33 441.303 441.362 440.516 440.543 440.012Z" fill="#24126A"/>
<path d="M456.287 449.08L445.991 443.129C445.172 442.657 443.755 442.688 442.873 443.223L439.693 445.081C438.78 445.617 438.748 446.404 439.567 446.908L449.864 452.859C450.682 453.331 452.099 453.3 452.981 452.764L456.161 450.907C457.075 450.371 457.106 449.584 456.287 449.08Z" fill="#24126A"/>
<path d="M472.063 458.18L461.766 452.229C460.948 451.757 459.531 451.788 458.649 452.324L455.469 454.181C454.555 454.717 454.524 455.504 455.343 456.008L465.639 461.959C466.458 462.431 467.875 462.4 468.757 461.865L471.937 460.007C472.85 459.471 472.882 458.684 472.063 458.18Z" fill="#24126A"/>
<path d="M487.807 467.28L477.511 461.329C476.692 460.857 475.275 460.888 474.393 461.424L471.213 463.281C470.3 463.817 470.268 464.604 471.087 465.108L481.384 471.059C482.202 471.531 483.619 471.5 484.501 470.965L487.681 469.107C488.595 468.572 488.626 467.784 487.807 467.28Z" fill="#24126A"/>
<path d="M575.692 518.04L565.395 512.089C564.576 511.617 563.159 511.648 562.277 512.183L559.097 514.041C558.184 514.577 558.153 515.364 558.971 515.868L569.268 521.819C570.087 522.291 571.504 522.26 572.385 521.724L575.566 519.867C576.479 519.331 576.51 518.544 575.692 518.04Z" fill="#24126A"/>
<path d="M591.436 527.109L581.139 521.157C580.32 520.685 578.903 520.716 578.022 521.252L574.841 523.11C573.928 523.645 573.897 524.432 574.715 524.936L585.012 530.887C585.831 531.36 587.248 531.328 588.13 530.793L591.31 528.935C592.223 528.4 592.255 527.612 591.436 527.109Z" fill="#24126A"/>
<path d="M607.18 536.209L596.883 530.257C596.065 529.785 594.648 529.817 593.766 530.352L590.586 532.21C589.672 532.745 589.641 533.532 590.46 534.036L600.756 539.987C601.575 540.46 602.992 540.428 603.874 539.893L607.054 538.035C607.967 537.5 607.999 536.713 607.18 536.209Z" fill="#24126A"/>
<path d="M622.956 545.309L612.659 539.357C611.84 538.885 610.423 538.917 609.542 539.452L606.361 541.31C605.448 541.845 605.417 542.632 606.235 543.136L616.532 549.087C617.351 549.56 618.768 549.528 619.649 548.993L622.83 547.135C623.743 546.6 623.774 545.813 622.956 545.309Z" fill="#24126A"/>
<path d="M498.545 455.693L488.248 449.742C487.429 449.269 486.012 449.301 485.131 449.836L475.527 455.441C474.614 455.976 474.582 456.764 475.401 457.268L485.698 463.219C486.516 463.691 487.933 463.66 488.815 463.124L498.419 457.519C499.332 456.984 499.364 456.197 498.545 455.693Z" fill="#24126A"/>
<path d="M514.447 464.887L504.15 458.936C503.331 458.464 501.914 458.495 501.032 459.031L491.428 464.636C490.515 465.171 490.484 465.958 491.303 466.462L501.599 472.413C502.418 472.885 503.835 472.854 504.717 472.319L514.321 466.714C515.234 466.178 515.265 465.391 514.447 464.887Z" fill="#24126A"/>
<path d="M530.348 474.051L520.052 468.099C519.233 467.627 517.816 467.658 516.934 468.194L507.33 473.799C506.417 474.334 506.386 475.121 507.204 475.625L517.501 481.576C518.32 482.049 519.737 482.017 520.618 481.482L530.222 475.877C531.135 475.342 531.167 474.554 530.348 474.051Z" fill="#24126A"/>
<path d="M546.218 483.214L535.922 477.262C535.103 476.79 533.686 476.821 532.804 477.357L523.2 482.962C522.287 483.497 522.256 484.284 523.074 484.788L533.371 490.739C534.19 491.212 535.607 491.18 536.488 490.645L546.092 485.04C547.006 484.505 547.037 483.717 546.218 483.214Z" fill="#24126A"/>
<path d="M562.12 492.408L551.823 486.457C551.005 485.985 549.588 486.016 548.706 486.552L539.102 492.157C538.189 492.692 538.157 493.479 538.976 493.983L549.273 499.934C550.091 500.406 551.508 500.375 552.39 499.84L561.994 494.235C562.907 493.699 562.939 492.912 562.12 492.408Z" fill="#24126A"/>
<path d="M578.022 501.572L567.725 495.62C566.906 495.148 565.489 495.179 564.608 495.715L555.004 501.32C554.09 501.855 554.059 502.642 554.878 503.146L565.174 509.097C565.993 509.57 567.41 509.538 568.292 509.003L577.896 503.398C578.809 502.863 578.84 502.075 578.022 501.572Z" fill="#24126A"/>
<path d="M593.892 510.766L583.595 504.815C582.776 504.343 581.359 504.374 580.478 504.91L570.874 510.514C569.961 511.05 569.929 511.837 570.748 512.341L581.045 518.292C581.863 518.764 583.28 518.733 584.162 518.198L593.766 512.593C594.679 512.057 594.711 511.27 593.892 510.766Z" fill="#24126A"/>
<path d="M609.794 519.929L599.497 513.978C598.678 513.506 597.261 513.537 596.379 514.073L586.775 519.678C585.862 520.213 585.831 521 586.65 521.504L596.946 527.455C597.765 527.927 599.182 527.896 600.064 527.361L609.668 521.756C610.581 521.22 610.612 520.433 609.794 519.929Z" fill="#24126A"/>
<path d="M625.695 529.093L615.398 523.141C614.58 522.669 613.163 522.7 612.281 523.236L602.677 528.841C601.764 529.376 601.733 530.163 602.551 530.667L612.848 536.618C613.667 537.091 615.084 537.059 615.965 536.524L625.569 530.919C626.482 530.384 626.514 529.596 625.695 529.093Z" fill="#24126A"/>
<path d="M497.821 404.524L467.529 387.017C466.71 386.544 465.293 386.576 464.411 387.111L454.807 392.716C453.894 393.251 453.863 394.039 454.681 394.542L484.973 412.05C485.792 412.522 487.209 412.491 488.091 411.956L497.695 406.351C498.608 405.815 498.639 405.028 497.821 404.524Z" fill="#24126A"/>
<path d="M693.049 517.222L662.757 499.714C661.938 499.242 660.521 499.273 659.64 499.808L650.036 505.413C649.123 505.949 649.091 506.736 649.91 507.24L680.202 524.747C681.02 525.22 682.437 525.188 683.319 524.653L692.923 519.048C693.836 518.513 693.868 517.725 693.049 517.222Z" fill="#24126A"/>
<path d="M663.576 481.009L653.279 475.058C652.46 474.586 651.043 474.617 650.162 475.153L638.731 481.828C637.818 482.364 637.787 483.151 638.605 483.655L648.902 489.606C649.721 490.078 651.138 490.047 652.02 489.511L663.45 482.836C664.363 482.301 664.395 481.513 663.576 481.009Z" fill="#24126A"/>
<path d="M548.171 414.38L531.702 404.871C530.883 404.398 529.466 404.43 528.585 404.965L517.155 411.641C516.241 412.176 516.21 412.963 517.029 413.467L533.497 422.977C534.316 423.449 535.733 423.417 536.614 422.882L548.045 416.206C548.958 415.671 548.989 414.884 548.171 414.38Z" fill="#24126A"/>
<path d="M648.241 472.161L631.772 462.652C630.954 462.18 629.537 462.211 628.655 462.746L617.225 469.422C616.312 469.957 616.28 470.744 617.099 471.248L633.567 480.758C634.386 481.23 635.803 481.199 636.685 480.663L648.115 473.988C649.028 473.452 649.06 472.665 648.241 472.161Z" fill="#24126A"/>
<path d="M571.094 427.637L554.626 418.127C553.807 417.655 552.39 417.686 551.508 418.221L540.078 424.897C539.165 425.432 539.133 426.22 539.952 426.723L556.421 436.233C557.239 436.705 558.656 436.674 559.538 436.138L570.968 429.463C571.881 428.928 571.913 428.14 571.094 427.637Z" fill="#24126A"/>
<path d="M540.047 426.787L611.588 468.1C612.47 468.603 613.887 468.635 614.706 468.131L626.356 461.33C627.207 460.826 627.144 460.039 626.262 459.503L554.72 418.19L540.015 426.787H540.047Z" fill="#24126A"/>
<path d="M676.801 497.195L688.263 503.807C688.924 504.185 690.089 504.154 690.813 503.744L695.505 501.005C696.229 500.564 696.292 499.903 695.6 499.525L684.138 492.912C683.445 492.534 682.311 492.566 681.587 492.975L676.895 495.715C676.171 496.156 676.108 496.817 676.801 497.195Z" fill="#24126A"/>
<path d="M660.899 488.032L672.361 494.644C673.054 495.022 674.187 494.991 674.912 494.581L679.603 491.842C680.328 491.401 680.391 490.74 679.698 490.362L668.236 483.749C667.575 483.371 666.41 483.403 665.686 483.812L660.994 486.552C660.27 486.992 660.207 487.654 660.899 488.032Z" fill="#24126A"/>
<path d="M668.551 502.013L680.013 508.625C680.674 509.003 681.839 508.971 682.563 508.562L687.255 505.823C687.979 505.382 688.042 504.721 687.35 504.343L675.888 497.73C675.195 497.352 674.061 497.384 673.337 497.793L668.645 500.533C667.921 500.973 667.858 501.635 668.551 502.013Z" fill="#24126A"/>
</g>
</g>
</g>
<g opacity="0.8">
<path d="M270.38 511.144L260.177 505.256C259.359 504.783 259.453 503.965 260.398 503.398L272.426 496.439C273.371 495.903 274.788 495.84 275.607 496.313L285.809 502.201C286.628 502.674 286.533 503.492 285.588 504.059L273.56 511.018C272.615 511.553 271.198 511.616 270.38 511.144Z" fill="#24126A"/>
<path d="M286.092 520.213L275.89 514.324C275.071 513.852 275.166 513.033 276.11 512.467L288.139 505.508C289.084 504.972 290.501 504.909 291.319 505.382L301.522 511.27C302.34 511.742 302.246 512.561 301.301 513.128L289.273 520.087C288.328 520.622 286.911 520.685 286.092 520.213Z" fill="#24126A"/>
<path d="M301.837 529.313L291.634 523.424C290.816 522.952 290.91 522.133 291.855 521.567L303.883 514.608C304.828 514.072 306.245 514.009 307.064 514.482L317.266 520.37C318.085 520.842 317.99 521.661 317.045 522.228L305.017 529.187C304.072 529.722 302.655 529.785 301.837 529.313Z" fill="#24126A"/>
<path d="M323.595 521.818L313.393 515.93C312.574 515.458 312.669 514.639 313.613 514.072L323.721 508.247C324.666 507.712 326.083 507.649 326.901 508.121L337.104 514.009C337.922 514.482 337.828 515.3 336.883 515.867L326.775 521.692C325.831 522.228 324.414 522.291 323.595 521.818Z" fill="#24126A"/>
<path d="M339.339 530.887L329.137 524.999C328.318 524.527 328.413 523.708 329.357 523.141L339.465 517.316C340.41 516.78 341.827 516.717 342.646 517.19L352.848 523.078C353.666 523.55 353.572 524.369 352.627 524.936L342.52 530.761C341.575 531.297 340.158 531.36 339.339 530.887Z" fill="#24126A"/>
<path d="M355.084 539.987L344.881 534.099C344.063 533.627 344.157 532.808 345.102 532.241L355.209 526.416C356.154 525.881 357.571 525.818 358.39 526.29L368.592 532.178C369.411 532.651 369.316 533.469 368.372 534.036L358.264 539.861C357.319 540.397 355.902 540.46 355.084 539.987Z" fill="#24126A"/>
<path d="M370.828 549.056L360.625 543.168C359.807 542.696 359.901 541.877 360.846 541.31L370.954 535.485C371.898 534.949 373.315 534.886 374.134 535.359L384.336 541.247C385.155 541.719 385.061 542.538 384.116 543.105L374.008 548.93C373.063 549.466 371.646 549.529 370.828 549.056Z" fill="#24126A"/>
<path d="M386.572 558.156L376.37 552.268C375.551 551.796 375.645 550.977 376.59 550.41L386.698 544.585C387.643 544.049 389.059 543.987 389.878 544.459L400.08 550.347C400.899 550.819 400.805 551.638 399.86 552.205L389.752 558.03C388.808 558.566 387.391 558.629 386.572 558.156Z" fill="#24126A"/>
<path d="M402.285 567.225L392.082 561.337C391.264 560.865 391.358 560.046 392.303 559.479L402.411 553.654C403.355 553.118 404.772 553.055 405.591 553.528L415.793 559.416C416.612 559.888 416.517 560.707 415.573 561.274L405.465 567.099C404.52 567.635 403.103 567.697 402.285 567.225Z" fill="#24126A"/>
<path d="M418.029 576.325L407.827 570.437C407.008 569.965 407.102 569.146 408.047 568.579L418.155 562.754C419.1 562.218 420.516 562.155 421.335 562.628L431.537 568.516C432.356 568.988 432.262 569.807 431.317 570.374L421.209 576.199C420.265 576.735 418.848 576.798 418.029 576.325Z" fill="#24126A"/>
<path d="M433.773 585.425L423.571 579.537C422.752 579.065 422.847 578.246 423.791 577.679L433.899 571.854C434.844 571.319 436.261 571.256 437.079 571.728L447.282 577.616C448.1 578.089 448.006 578.907 447.061 579.474L436.953 585.299C436.009 585.835 434.592 585.898 433.773 585.425Z" fill="#24126A"/>
<path d="M449.517 594.494L439.315 588.605C438.496 588.133 438.591 587.314 439.536 586.748L449.643 580.922C450.588 580.387 452.005 580.324 452.824 580.796L463.026 586.685C463.845 587.157 463.75 587.976 462.805 588.542L452.698 594.368C451.753 594.903 450.336 594.966 449.517 594.494Z" fill="#24126A"/>
<path d="M465.262 603.594L455.059 597.706C454.241 597.234 454.335 596.415 455.28 595.848L465.388 590.023C466.332 589.487 467.749 589.424 468.568 589.897L478.77 595.785C479.589 596.258 479.494 597.076 478.55 597.643L468.442 603.468C467.497 604.004 466.08 604.067 465.262 603.594Z" fill="#24126A"/>
<path d="M346.802 517.504L336.6 511.616C335.781 511.144 335.876 510.325 336.82 509.758L346.928 503.933C347.873 503.398 349.29 503.335 350.108 503.807L360.311 509.695C361.129 510.168 361.035 510.986 360.09 511.553L349.982 517.378C349.038 517.914 347.621 517.977 346.802 517.504Z" fill="#24126A"/>
<path d="M330.837 508.278L320.635 502.39C319.816 501.918 319.911 501.099 320.856 500.532L330.963 494.707C331.908 494.172 333.325 494.109 334.144 494.581L344.346 500.469C345.165 500.942 345.07 501.76 344.125 502.327L334.018 508.152C333.073 508.688 331.656 508.751 330.837 508.278Z" fill="#24126A"/>
<path d="M314.81 499.052L292.862 486.394C292.044 485.922 292.138 485.103 293.083 484.536L303.191 478.711C304.135 478.175 305.552 478.112 306.371 478.585L328.318 491.243C329.137 491.715 329.043 492.534 328.098 493.101L317.99 498.926C317.045 499.462 315.628 499.525 314.81 499.052Z" fill="#24126A"/>
<path d="M326.02 487.811L308.197 477.515C307.378 477.042 307.473 476.224 308.418 475.657L318.525 469.831C319.47 469.296 320.887 469.233 321.706 469.705L339.528 480.002C340.347 480.474 340.252 481.293 339.308 481.86L329.2 487.685C328.255 488.221 326.838 488.284 326.02 487.811Z" fill="#24126A"/>
<path d="M362.546 526.605L352.344 520.717C351.525 520.244 351.62 519.426 352.564 518.859L362.672 513.033C363.617 512.498 365.034 512.435 365.853 512.908L376.055 518.796C376.873 519.268 376.779 520.087 375.834 520.654L365.727 526.479C364.782 527.014 363.365 527.077 362.546 526.605Z" fill="#24126A"/>
<path d="M378.259 535.673L368.057 529.785C367.238 529.313 367.332 528.494 368.277 527.927L378.385 522.102C379.33 521.567 380.747 521.504 381.565 521.976L391.767 527.864C392.586 528.337 392.492 529.155 391.547 529.722L381.439 535.547C380.495 536.083 379.078 536.146 378.259 535.673Z" fill="#24126A"/>
<path d="M394.003 544.773L383.801 538.885C382.982 538.413 383.077 537.594 384.021 537.027L394.129 531.202C395.074 530.667 396.491 530.604 397.309 531.076L407.512 536.964C408.33 537.437 408.236 538.255 407.291 538.822L397.184 544.648C396.239 545.183 394.822 545.246 394.003 544.773Z" fill="#24126A"/>
<path d="M409.747 553.842L399.545 547.954C398.726 547.482 398.821 546.663 399.766 546.096L409.873 540.271C410.818 539.736 412.235 539.673 413.054 540.145L423.256 546.033C424.075 546.506 423.98 547.324 423.036 547.891L412.928 553.716C411.983 554.252 410.566 554.315 409.747 553.842Z" fill="#24126A"/>
<path d="M425.492 562.942L415.289 557.054C414.471 556.582 414.565 555.763 415.51 555.196L425.618 549.371C426.562 548.836 427.979 548.773 428.798 549.245L439 555.133C439.819 555.606 439.724 556.424 438.78 556.991L428.672 562.817C427.727 563.352 426.31 563.415 425.492 562.942Z" fill="#24126A"/>
<path d="M441.236 572.011L431.034 566.123C430.215 565.651 430.309 564.832 431.254 564.265L441.362 558.44C442.306 557.904 443.723 557.841 444.542 558.314L454.744 564.202C455.563 564.674 455.469 565.493 454.524 566.06L444.416 571.885C443.472 572.421 442.055 572.484 441.236 572.011Z" fill="#24126A"/>
<path d="M456.949 581.111L446.746 575.223C445.928 574.751 446.022 573.932 446.967 573.365L457.075 567.54C458.019 567.005 459.436 566.942 460.255 567.414L470.457 573.302C471.276 573.775 471.181 574.593 470.237 575.16L460.129 580.985C459.184 581.521 457.767 581.584 456.949 581.111Z" fill="#24126A"/>
<path d="M472.693 590.18L462.491 584.291C461.672 583.819 461.766 583 462.711 582.434L472.819 576.608C473.763 576.073 475.18 576.01 475.999 576.482L486.201 582.371C487.02 582.843 486.926 583.662 485.981 584.228L475.873 590.054C474.929 590.589 473.512 590.652 472.693 590.18Z" fill="#24126A"/>
<path d="M488.437 599.28L478.235 593.392C477.416 592.92 477.511 592.101 478.455 591.534L488.563 585.709C489.508 585.173 490.925 585.111 491.743 585.583L501.946 591.471C502.764 591.944 502.67 592.762 501.725 593.329L491.617 599.154C490.673 599.69 489.256 599.753 488.437 599.28Z" fill="#24126A"/>
<path d="M516.43 615.434L494.199 602.586C493.381 602.114 493.475 601.295 494.42 600.729L504.528 594.903C505.472 594.368 506.889 594.305 507.708 594.777L529.939 607.624C530.758 608.097 530.663 608.915 529.718 609.482L519.611 615.308C518.666 615.843 517.249 615.906 516.43 615.434Z" fill="#24126A"/>
<path d="M547.069 597.737L528.301 586.905C527.483 586.433 527.577 585.614 528.522 585.047L538.63 579.222C539.574 578.687 540.991 578.624 541.81 579.096L560.577 589.928C561.396 590.4 561.301 591.219 560.357 591.786L550.249 597.611C549.304 598.147 547.887 598.21 547.069 597.737Z" fill="#24126A"/>
<path d="M390.099 524.81L379.896 518.922C379.078 518.449 379.172 517.631 380.117 517.064L390.225 511.239C391.169 510.703 392.586 510.64 393.405 511.113L403.607 517.001C404.426 517.473 404.331 518.292 403.387 518.859L393.279 524.684C392.334 525.219 390.917 525.282 390.099 524.81Z" fill="#24126A"/>
<path d="M373.977 515.489L363.774 509.601C362.956 509.129 363.05 508.31 363.995 507.743L374.103 501.918C375.047 501.382 376.464 501.32 377.283 501.792L387.485 507.68C388.304 508.152 388.209 508.971 387.265 509.538L377.157 515.363C376.212 515.899 374.795 515.962 373.977 515.489Z" fill="#24126A"/>
<path d="M357.823 506.2L347.621 500.312C346.802 499.84 346.896 499.021 347.841 498.454L357.949 492.629C358.894 492.093 360.311 492.03 361.129 492.503L371.331 498.391C372.15 498.863 372.056 499.682 371.111 500.249L361.003 506.074C360.059 506.61 358.642 506.673 357.823 506.2Z" fill="#24126A"/>
<path d="M341.701 496.88L331.499 490.992C330.68 490.519 330.774 489.701 331.719 489.134L341.827 483.308C342.771 482.773 344.188 482.71 345.007 483.182L355.209 489.071C356.028 489.543 355.934 490.362 354.989 490.929L344.881 496.754C343.937 497.289 342.52 497.352 341.701 496.88Z" fill="#24126A"/>
<path d="M405.843 533.91L395.641 528.022C394.822 527.55 394.916 526.731 395.861 526.164L405.969 520.339C406.913 519.803 408.33 519.74 409.149 520.213L419.351 526.101C420.17 526.573 420.076 527.392 419.131 527.959L409.023 533.784C408.079 534.32 406.662 534.383 405.843 533.91Z" fill="#24126A"/>
<path d="M421.556 542.979L411.353 537.091C410.535 536.618 410.629 535.8 411.574 535.233L421.682 529.408C422.626 528.872 424.043 528.809 424.862 529.282L435.064 535.17C435.883 535.642 435.788 536.461 434.844 537.028L424.736 542.853C423.791 543.388 422.374 543.451 421.556 542.979Z" fill="#24126A"/>
<path d="M437.3 552.079L427.098 546.191C426.279 545.719 426.373 544.9 427.318 544.333L437.426 538.508C438.37 537.972 439.787 537.909 440.606 538.382L450.808 544.27C451.627 544.742 451.533 545.561 450.588 546.128L440.48 551.953C439.535 552.488 438.118 552.551 437.3 552.079Z" fill="#24126A"/>
<path d="M453.044 561.148L442.842 555.259C442.023 554.787 442.118 553.968 443.062 553.401L453.17 547.576C454.115 547.041 455.532 546.978 456.35 547.45L466.553 553.338C467.371 553.811 467.277 554.629 466.332 555.196L456.224 561.022C455.28 561.557 453.863 561.62 453.044 561.148Z" fill="#24126A"/>
<path d="M468.788 570.248L458.586 564.359C457.767 563.887 457.862 563.068 458.806 562.501L468.914 556.676C469.859 556.141 471.276 556.078 472.095 556.55L482.297 562.438C483.115 562.911 483.021 563.73 482.076 564.296L471.969 570.122C471.024 570.657 469.607 570.72 468.788 570.248Z" fill="#24126A"/>
<path d="M484.533 579.316L474.33 573.428C473.512 572.956 473.606 572.137 474.551 571.57L484.658 565.745C485.603 565.21 487.02 565.147 487.839 565.619L498.041 571.507C498.86 571.98 498.765 572.798 497.821 573.365L487.713 579.191C486.768 579.726 485.351 579.789 484.533 579.316Z" fill="#24126A"/>
<path d="M500.245 588.417L490.043 582.528C489.224 582.056 489.319 581.237 490.263 580.67L500.371 574.845C501.316 574.31 502.733 574.247 503.551 574.719L513.754 580.607C514.572 581.08 514.478 581.898 513.533 582.465L503.426 588.291C502.481 588.826 501.064 588.889 500.245 588.417Z" fill="#24126A"/>
<path d="M515.989 597.517L505.787 591.628C504.968 591.156 505.063 590.337 506.008 589.77L516.115 583.945C517.06 583.41 518.477 583.347 519.296 583.819L529.498 589.708C530.317 590.18 530.222 590.999 529.278 591.565L519.17 597.391C518.225 597.926 516.808 597.989 515.989 597.517Z" fill="#24126A"/>
<path d="M531.734 606.586L521.531 600.697C520.713 600.225 520.807 599.406 521.752 598.839L531.86 593.014C532.804 592.479 534.221 592.416 535.04 592.888L545.242 598.776C546.061 599.249 545.966 600.067 545.022 600.634L534.914 606.46C533.969 606.995 532.552 607.058 531.734 606.586Z" fill="#24126A"/>
<path d="M381.817 502.327L371.615 496.439C370.796 495.967 370.891 495.148 371.835 494.581L381.943 488.756C382.888 488.22 384.305 488.157 385.123 488.63L395.326 494.518C396.144 494.99 396.05 495.809 395.105 496.376L384.998 502.201C384.053 502.737 382.636 502.8 381.817 502.327Z" fill="#24126A"/>
<path d="M366.136 493.29L355.934 487.402C355.115 486.929 355.209 486.111 356.154 485.544L366.262 479.719C367.207 479.183 368.624 479.12 369.442 479.593L379.644 485.481C380.463 485.953 380.369 486.772 379.424 487.339L369.316 493.164C368.372 493.699 366.955 493.762 366.136 493.29Z" fill="#24126A"/>
<path d="M350.486 484.253L340.284 478.365C339.465 477.892 339.56 477.074 340.504 476.507L350.612 470.681C351.557 470.146 352.974 470.083 353.792 470.556L363.995 476.444C364.813 476.916 364.719 477.735 363.774 478.302L353.666 484.127C352.722 484.662 351.305 484.725 350.486 484.253Z" fill="#24126A"/>
<path d="M334.836 475.216L324.634 469.328C323.816 468.855 323.91 468.037 324.855 467.47L334.962 461.644C335.907 461.109 337.324 461.046 338.143 461.518L348.345 467.407C349.164 467.879 349.069 468.698 348.125 469.265L338.017 475.09C337.072 475.625 335.655 475.688 334.836 475.216Z" fill="#24126A"/>
<path d="M350.927 465.927L340.725 460.038C339.906 459.566 340.001 458.747 340.945 458.18L344.283 456.26C345.228 455.724 346.645 455.661 347.463 456.134L357.666 462.022C358.484 462.494 358.39 463.313 357.445 463.88L354.107 465.801C353.163 466.336 351.746 466.399 350.927 465.927Z" fill="#24126A"/>
<path d="M371.363 477.703L361.161 471.815C360.342 471.343 360.437 470.524 361.381 469.957L364.719 468.036C365.664 467.501 367.081 467.438 367.899 467.91L378.102 473.799C378.92 474.271 378.826 475.09 377.881 475.657L374.543 477.577C373.599 478.113 372.182 478.176 371.363 477.703Z" fill="#24126A"/>
<path d="M386.95 486.709L376.748 480.82C375.929 480.348 376.023 479.529 376.968 478.963L380.306 477.042C381.25 476.506 382.667 476.444 383.486 476.916L393.688 482.804C394.507 483.277 394.413 484.095 393.468 484.662L390.13 486.583C389.185 487.118 387.768 487.181 386.95 486.709Z" fill="#24126A"/>
<path d="M402.568 495.715L392.366 489.826C391.547 489.354 391.642 488.535 392.586 487.968L395.924 486.048C396.869 485.512 398.286 485.449 399.104 485.922L409.307 491.81C410.125 492.282 410.031 493.101 409.086 493.668L405.748 495.589C404.804 496.124 403.387 496.187 402.568 495.715Z" fill="#24126A"/>
<path d="M418.155 504.72L407.953 498.832C407.134 498.36 407.228 497.541 408.173 496.974L411.511 495.054C412.455 494.518 413.872 494.455 414.691 494.928L424.893 500.816C425.712 501.288 425.618 502.107 424.673 502.674L421.335 504.595C420.391 505.13 418.974 505.193 418.155 504.72Z" fill="#24126A"/>
<path d="M505.22 555.008L495.018 549.119C494.199 548.647 494.294 547.828 495.239 547.261L498.576 545.341C499.521 544.805 500.938 544.742 501.757 545.215L511.959 551.103C512.778 551.575 512.683 552.394 511.738 552.961L508.401 554.882C507.456 555.417 506.039 555.48 505.22 555.008Z" fill="#24126A"/>
<path d="M520.807 563.982L510.605 558.093C509.786 557.621 509.881 556.802 510.825 556.236L514.163 554.315C515.108 553.779 516.525 553.716 517.343 554.189L527.546 560.077C528.364 560.549 528.27 561.368 527.325 561.935L523.987 563.856C523.043 564.391 521.626 564.454 520.807 563.982Z" fill="#24126A"/>
<path d="M536.394 572.987L526.192 567.099C525.373 566.626 525.467 565.808 526.412 565.241L529.75 563.32C530.695 562.785 532.112 562.722 532.93 563.194L543.132 569.083C543.951 569.555 543.857 570.374 542.912 570.94L539.574 572.861C538.63 573.396 537.213 573.459 536.394 572.987Z" fill="#24126A"/>
<path d="M551.981 581.993L541.778 576.105C540.96 575.632 541.054 574.814 541.999 574.247L545.337 572.326C546.281 571.791 547.698 571.728 548.517 572.2L558.719 578.088C559.538 578.561 559.443 579.379 558.499 579.946L555.161 581.867C554.216 582.402 552.799 582.465 551.981 581.993Z" fill="#24126A"/>
<path d="M397.53 511.427L387.328 505.539C386.509 505.067 386.603 504.248 387.548 503.681L397.656 497.856C398.601 497.32 400.018 497.257 400.836 497.73L411.038 503.618C411.857 504.091 411.763 504.909 410.818 505.476L400.71 511.301C399.766 511.837 398.349 511.9 397.53 511.427Z" fill="#24126A"/>
<path d="M413.274 520.527L403.072 514.639C402.253 514.167 402.348 513.348 403.292 512.781L413.4 506.956C414.345 506.421 415.762 506.358 416.58 506.83L426.783 512.718C427.601 513.191 427.507 514.009 426.562 514.576L416.454 520.401C415.51 520.937 414.093 521 413.274 520.527Z" fill="#24126A"/>
<path d="M429.018 529.596L418.816 523.708C417.997 523.236 418.092 522.417 419.037 521.85L429.144 516.025C430.089 515.489 431.506 515.426 432.325 515.899L442.527 521.787C443.346 522.259 443.251 523.078 442.306 523.645L432.199 529.47C431.254 530.006 429.837 530.069 429.018 529.596Z" fill="#24126A"/>
<path d="M444.763 538.696L434.56 532.808C433.742 532.336 433.836 531.517 434.781 530.95L444.889 525.125C445.833 524.59 447.25 524.527 448.069 524.999L458.271 530.887C459.09 531.36 458.995 532.178 458.051 532.745L447.943 538.57C446.998 539.106 445.581 539.169 444.763 538.696Z" fill="#24126A"/>
<path d="M460.507 547.765L450.305 541.877C449.486 541.405 449.58 540.586 450.525 540.019L460.633 534.194C461.577 533.658 462.994 533.595 463.813 534.068L474.015 539.956C474.834 540.428 474.74 541.247 473.795 541.814L463.687 547.639C462.742 548.175 461.326 548.238 460.507 547.765Z" fill="#24126A"/>
<path d="M476.22 556.865L466.017 550.977C465.199 550.505 465.293 549.686 466.238 549.119L476.345 543.294C477.29 542.758 478.707 542.695 479.526 543.168L489.728 549.056C490.547 549.528 490.452 550.347 489.508 550.914L479.4 556.739C478.455 557.275 477.038 557.338 476.22 556.865Z" fill="#24126A"/>
<path d="M491.964 565.934L481.762 560.045C480.943 559.573 481.037 558.754 481.982 558.187L492.09 552.362C493.034 551.827 494.451 551.764 495.27 552.236L505.472 558.125C506.291 558.597 506.197 559.416 505.252 559.982L495.144 565.808C494.199 566.343 492.782 566.406 491.964 565.934Z" fill="#24126A"/>
<path d="M507.708 575.034L497.506 569.146C496.687 568.674 496.781 567.855 497.726 567.288L507.834 561.463C508.779 560.927 510.196 560.864 511.014 561.337L521.217 567.225C522.035 567.697 521.941 568.516 520.996 569.083L510.888 574.908C509.944 575.444 508.527 575.507 507.708 575.034Z" fill="#24126A"/>
<path d="M523.452 584.103L513.25 578.214C512.431 577.742 512.526 576.923 513.47 576.356L523.578 570.531C524.523 569.996 525.94 569.933 526.758 570.405L536.961 576.293C537.779 576.766 537.685 577.584 536.74 578.151L526.633 583.977C525.688 584.512 524.271 584.575 523.452 584.103Z" fill="#24126A"/>
<path d="M307.567 512.561L277.559 495.242C276.74 494.77 276.835 493.951 277.779 493.384L287.887 487.559C288.832 487.024 290.249 486.961 291.067 487.433L321.076 504.752C321.895 505.224 321.8 506.043 320.856 506.609L310.748 512.435C309.803 512.97 308.386 513.033 307.567 512.561Z" fill="#24126A"/>
<path d="M500.906 624.188L470.898 606.869C470.079 606.397 470.174 605.578 471.118 605.011L481.226 599.186C482.171 598.651 483.588 598.588 484.407 599.06L514.415 616.379C515.234 616.851 515.139 617.67 514.195 618.236L504.087 624.062C503.142 624.597 501.725 624.66 500.906 624.188Z" fill="#24126A"/>
<path d="M437.961 607.908L427.759 602.02C426.94 601.547 427.035 600.729 427.979 600.162L440.008 593.203C440.952 592.668 442.369 592.605 443.188 593.077L453.39 598.965C454.209 599.438 454.115 600.256 453.17 600.823L441.141 607.782C440.197 608.317 438.78 608.38 437.961 607.908Z" fill="#24126A"/>
<path d="M323.69 541.908L307.379 532.493C306.56 532.021 306.654 531.202 307.599 530.636L319.628 523.677C320.572 523.141 321.989 523.078 322.808 523.551L339.119 532.966C339.938 533.438 339.843 534.257 338.898 534.824L326.87 541.782C325.925 542.318 324.508 542.381 323.69 541.908Z" fill="#24126A"/>
<path d="M422.815 599.154L406.504 589.739C405.685 589.267 405.78 588.448 406.725 587.881L418.753 580.922C419.698 580.387 421.115 580.324 421.933 580.796L438.244 590.211C439.063 590.684 438.969 591.502 438.024 592.069L425.995 599.028C425.051 599.563 423.634 599.626 422.815 599.154Z" fill="#24126A"/>
<path d="M346.393 555.039L330.082 545.624C329.263 545.151 329.357 544.333 330.302 543.766L342.331 536.807C343.275 536.272 344.692 536.209 345.511 536.681L361.822 546.096C362.641 546.568 362.546 547.387 361.602 547.954L349.573 554.913C348.628 555.448 347.211 555.511 346.393 555.039Z" fill="#24126A"/>
<path d="M345.668 536.775L416.517 577.679C417.399 578.183 417.399 579.001 416.517 579.505L404.237 586.59C403.355 587.094 401.938 587.094 401.057 586.59L330.208 545.687L345.668 536.775Z" fill="#24126A"/>
<path d="M481.95 624.376L493.286 630.926C493.948 631.304 493.885 631.997 493.097 632.437L488.185 635.271C487.398 635.712 486.233 635.775 485.572 635.366L474.204 628.816C473.543 628.438 473.606 627.746 474.393 627.305L479.305 624.471C480.093 624.03 481.258 623.967 481.919 624.376H481.95Z" fill="#24126A"/>
<path d="M466.08 615.213L477.448 621.763C478.109 622.141 478.046 622.833 477.259 623.274L472.346 626.108C471.559 626.549 470.394 626.612 469.733 626.203L458.397 619.653C457.736 619.275 457.799 618.583 458.586 618.142L463.498 615.308C464.285 614.867 465.45 614.804 466.112 615.213H466.08Z" fill="#24126A"/>
<path d="M450.368 606.144L461.735 612.694C462.396 613.072 462.333 613.765 461.546 614.205L456.634 617.039C455.847 617.48 454.682 617.543 454.02 617.134L442.684 610.584C442.023 610.206 442.086 609.514 442.873 609.073L447.786 606.239C448.573 605.798 449.738 605.735 450.399 606.144H450.368Z" fill="#24126A"/>
<path d="M474.771 610.206L486.138 616.756C486.8 617.134 486.737 617.827 485.949 618.268L481.037 621.101C480.25 621.542 479.085 621.605 478.424 621.196L467.088 614.646C466.427 614.268 466.49 613.576 467.277 613.135L472.189 610.301C472.976 609.86 474.141 609.797 474.803 610.206H474.771Z" fill="#24126A"/>
</g>
<path d="M635.331 365.353C634.543 365.353 633.756 365.132 632.969 364.66C630.544 363.274 629.064 360.125 629.631 357.638C629.915 356.441 630.607 355.528 631.615 355.087C632.749 354.615 634.103 354.741 635.394 355.497C637.787 356.882 639.298 360.031 638.731 362.519C638.448 363.715 637.755 364.628 636.748 365.069C636.307 365.258 635.834 365.353 635.362 365.353H635.331ZM633.032 355.906C632.686 355.906 632.371 355.969 632.056 356.095C631.363 356.378 630.891 357.04 630.702 357.89C630.23 359.937 631.489 362.55 633.504 363.715C634.48 364.282 635.488 364.408 636.307 364.062C637 363.778 637.472 363.117 637.661 362.267C638.133 360.22 636.874 357.606 634.858 356.441C634.229 356.095 633.599 355.906 633.032 355.906Z" fill="#42E8E0"/>
<path d="M648.304 372.847C647.517 372.847 646.729 372.626 645.942 372.154C643.549 370.768 642.038 367.62 642.605 365.132C642.888 363.935 643.581 363.022 644.588 362.581C645.69 362.109 647.076 362.235 648.367 362.991C650.76 364.376 652.271 367.525 651.705 370.013C651.421 371.209 650.729 372.122 649.721 372.563C649.28 372.752 648.808 372.847 648.304 372.847ZM646.005 363.4C645.659 363.4 645.344 363.463 645.029 363.589C644.336 363.872 643.864 364.534 643.675 365.384C643.203 367.431 644.462 370.044 646.478 371.209C647.454 371.776 648.461 371.902 649.28 371.556C649.973 371.272 650.445 370.611 650.634 369.761C651.106 367.714 649.847 365.101 647.832 363.935C647.202 363.589 646.572 363.4 646.005 363.4Z" fill="#42E8E0"/>
<path d="M664.143 377.381C663.607 379.648 661.403 380.435 659.167 379.176C656.963 377.885 655.578 375.019 656.113 372.752C656.648 370.485 658.853 369.698 661.088 370.957C663.292 372.248 664.678 375.114 664.143 377.381Z" fill="#42E8E0"/>
<path d="M415.352 234.203L408.393 230.204L408.96 226.992L415.888 230.991L415.352 234.203Z" fill="#42E8E0"/>
<path d="M425.429 240.029L418.501 236.03L419.037 232.818L425.964 236.817L425.429 240.029Z" fill="#42E8E0"/>
<path d="M405.371 228.441L390.13 219.656L390.665 216.444L405.906 225.229L405.371 228.441Z" fill="#42E8E0"/>
<path d="M771.329 830.311C767.078 830.311 762.827 829.366 759.584 827.508L697.3 791.548C694.057 789.691 692.293 787.171 692.293 784.463C692.293 781.755 694.088 779.236 697.3 777.379L759.584 741.419C766.071 737.672 776.588 737.672 783.074 741.419L845.359 777.379C848.602 779.236 850.365 781.755 850.365 784.463C850.365 787.171 848.602 789.691 845.359 791.548L783.074 827.508C779.831 829.366 775.58 830.311 771.329 830.311ZM760.151 826.563C766.323 830.122 776.367 830.122 782.539 826.563L844.823 790.604C847.72 788.935 849.295 786.762 849.295 784.463C849.295 782.165 847.72 779.992 844.823 778.323L782.539 742.363C776.367 738.805 766.323 738.805 760.151 742.363L697.867 778.323C694.97 779.992 693.395 782.165 693.395 784.463C693.395 786.762 694.97 788.935 697.867 790.604L760.151 826.563Z" fill="#42E8E0"/>
<path opacity="0.4" d="M852.318 770.64V749.322L848.413 747.149C847.311 753.825 839.47 758.202 832.921 759.115L788.302 785.219L768.81 792.241L706.652 760.154L708.101 759.335C702.779 756.848 699.914 751.18 697.048 745.984L692.86 748.472L690.373 749.165V770.86C690.373 773.631 692.199 776.402 695.852 778.48L758.136 814.44C765.441 818.66 777.281 818.66 784.586 814.44L846.87 778.48C850.46 776.402 852.286 773.694 852.349 770.986C852.349 770.86 852.349 770.734 852.349 770.608L852.318 770.64Z" fill="#42E8E0"/>
<path d="M852.318 751.684V737.577L848.413 735.404C847.311 742.08 839.47 746.457 832.921 747.37L788.302 773.474L768.81 780.496L706.652 748.409L708.101 747.59C702.779 745.103 699.914 739.435 697.048 734.239L692.86 736.727L690.373 737.42V751.904C690.373 754.675 692.199 757.446 695.852 759.525L758.136 795.484C765.441 799.704 777.281 799.704 784.586 795.484L846.87 759.525C850.46 757.446 852.286 754.738 852.349 752.03C852.349 751.904 852.349 751.778 852.349 751.652L852.318 751.684Z" fill="url(#paint10_linear_913_2259)"/>
<path opacity="0.3" d="M832.921 747.37L788.302 773.474L771.361 779.583V798.665C776.147 798.665 780.933 797.626 784.586 795.516L846.87 759.556C850.46 757.478 852.286 754.77 852.349 752.062C852.349 751.936 852.349 751.81 852.349 751.684V737.577L848.791 735.593H848.413C847.185 742.143 839.439 746.457 832.952 747.37H832.921Z" fill="#0F054C"/>
<path d="M708.069 747.59L767.078 713.52C769.408 712.166 773.219 712.166 775.549 713.52L833.55 746.992L832.921 747.37C839.47 746.457 847.311 742.08 848.413 735.404L783.326 699.193L764.402 694.186L748.972 703.255L697.017 734.239C699.882 739.435 702.747 745.103 708.069 747.59Z" fill="url(#paint11_linear_913_2259)"/>
<path opacity="0.3" d="M771.329 696.044L764.402 694.218L748.972 703.286L697.017 734.271C699.882 739.467 702.747 745.135 708.069 747.622L767.078 713.552C768.243 712.89 769.786 712.544 771.329 712.544V696.076V696.044Z" fill="#0F054C"/>
<path d="M758.104 781.189L695.82 745.229C688.515 741.009 688.515 734.176 695.82 729.957L758.104 693.997C765.41 689.778 777.249 689.778 784.554 693.997L846.839 729.957C854.144 734.176 854.144 741.009 846.839 745.229L784.554 781.189C777.249 785.408 765.41 785.408 758.104 781.189ZM775.549 699.193C773.219 697.839 769.408 697.839 767.078 699.193L704.794 735.153C702.464 736.507 702.464 738.679 704.794 740.033L767.078 775.993C769.408 777.347 773.219 777.347 775.549 775.993L837.833 740.033C840.163 738.679 840.163 736.507 837.833 735.153L775.549 699.193Z" fill="url(#paint12_linear_913_2259)"/>
<path d="M837.864 735.121L775.58 699.161C773.25 697.807 769.44 697.807 767.11 699.161L704.826 735.121C703.283 736.035 702.747 737.294 703.283 738.459C703.535 737.892 704.07 737.357 704.826 736.885L767.11 700.925C769.44 699.571 773.25 699.571 775.58 700.925L837.864 736.885C838.652 737.326 839.155 737.861 839.407 738.459C839.943 737.294 839.407 736.035 837.864 735.121Z" fill="white"/>
<path d="M846.839 745.229L784.554 781.189C777.249 785.408 765.41 785.408 758.104 781.189L695.82 745.229C692.545 743.34 690.75 740.947 690.404 738.459C689.963 741.513 691.79 744.631 695.82 746.961L758.104 782.921C765.41 787.14 777.249 787.14 784.554 782.921L846.839 746.961C850.869 744.631 852.664 741.482 852.255 738.459C851.908 740.915 850.113 743.34 846.839 745.229Z" fill="white"/>
<path d="M759.868 780.15L697.583 744.19C691.254 740.537 691.254 734.586 697.583 730.933L759.868 694.973C766.197 691.321 776.493 691.321 782.791 694.973L845.075 730.933C851.404 734.586 851.404 740.537 845.075 744.158L782.791 780.118C776.462 783.771 766.165 783.771 759.868 780.118V780.15ZM777.312 698.154C774.006 696.233 768.621 696.233 765.315 698.154L703.031 734.113C699.725 736.034 699.725 739.12 703.031 741.041L765.315 777.001C768.621 778.922 774.006 778.922 777.312 777.001L839.596 741.041C842.902 739.12 842.902 736.034 839.596 734.113L777.312 698.154Z" fill="url(#paint13_linear_913_2259)"/>
<path opacity="0.4" d="M775.58 699.161C773.25 697.807 769.44 697.807 767.11 699.161L704.826 735.121C702.496 736.475 702.496 738.648 704.826 740.002L767.11 775.962C769.44 777.316 773.25 777.316 775.58 775.962L837.864 740.002C840.195 738.648 840.195 736.475 837.864 735.121L775.58 699.161Z" fill="#42E8E0"/>
<path style="mix-blend-mode:lighten" opacity="0.5" d="M839.596 737.514V515.363H703.062V737.514C703.062 738.427 703.629 739.309 704.826 740.002L767.11 775.962C769.44 777.316 773.25 777.316 775.58 775.962L837.864 740.002C839.061 739.309 839.628 738.396 839.596 737.514Z" fill="url(#paint14_linear_913_2259)"/>
<path d="M137.782 375.366C133.531 375.366 129.28 374.421 126.037 372.563L63.7525 336.604C60.5091 334.746 58.7458 332.227 58.7458 329.519C58.7458 326.811 60.5406 324.292 63.7525 322.434L126.037 286.474C132.492 282.727 143.04 282.727 149.527 286.474L211.811 322.434C215.054 324.292 216.818 326.811 216.818 329.519C216.818 332.227 215.023 334.746 211.811 336.604L149.527 372.563C146.284 374.421 142.033 375.366 137.782 375.366ZM126.572 371.619C132.744 375.177 142.788 375.177 148.96 371.619L211.244 335.659C214.141 333.99 215.716 331.817 215.716 329.519C215.716 327.22 214.141 325.047 211.244 323.378L148.96 287.419C142.788 283.86 132.744 283.86 126.572 287.419L64.2877 323.378C61.4223 325.047 59.8164 327.22 59.8164 329.519C59.8164 331.817 61.3908 333.99 64.2877 335.659L126.572 371.619Z" fill="#42E8E0"/>
<path opacity="0.4" d="M218.739 315.695V294.378L214.834 292.205C213.732 298.881 205.891 303.258 199.342 304.171L154.723 330.275L135.231 337.297L73.0731 305.21L74.5215 304.391C69.2 301.904 66.3345 296.236 63.4691 291.04L59.2811 293.528L56.7935 294.22V315.916C56.7935 318.687 58.6199 321.458 62.2725 323.536L124.557 359.496C131.862 363.715 143.702 363.715 151.007 359.496L213.291 323.536C216.881 321.458 218.707 318.75 218.77 316.042C218.77 315.916 218.77 315.79 218.77 315.664L218.739 315.695Z" fill="#42E8E0"/>
<path d="M218.739 296.74V282.633L214.834 280.46C213.732 287.136 205.891 291.512 199.342 292.426L154.723 318.53L135.231 325.551L73.0731 293.465L74.5215 292.646C69.2 290.158 66.3345 284.491 63.4691 279.295L59.2811 281.783L56.7935 282.475V296.96C56.7935 299.731 58.6199 302.502 62.2725 304.58L124.557 340.54C131.862 344.759 143.702 344.759 151.007 340.54L213.291 304.58C216.881 302.502 218.707 299.794 218.77 297.086C218.77 296.96 218.77 296.834 218.77 296.708L218.739 296.74Z" fill="url(#paint15_linear_913_2259)"/>
<path opacity="0.3" d="M199.342 292.426L154.723 318.53L137.782 324.638V343.72C142.568 343.72 147.354 342.681 151.007 340.571L213.291 304.612C216.881 302.533 218.707 299.825 218.77 297.117C218.77 296.991 218.77 296.865 218.77 296.74V282.633L215.212 280.649H214.834C213.606 287.199 205.86 291.512 199.373 292.426H199.342Z" fill="#0F054C"/>
<path d="M124.557 326.213L62.2725 290.253C54.9672 286.033 54.9672 279.2 62.2725 274.981L124.557 239.021C131.862 234.802 143.702 234.802 151.007 239.021L213.291 274.981C220.596 279.2 220.596 286.033 213.291 290.253L151.007 326.213C143.702 330.432 131.862 330.432 124.557 326.213Z" fill="url(#paint16_linear_913_2259)"/>
<path d="M213.291 290.253L151.007 326.213C143.702 330.432 131.862 330.432 124.557 326.213L62.2725 290.253C58.9977 288.364 57.2028 285.97 56.8565 283.483C56.4156 286.537 58.242 289.655 62.2725 291.985L124.557 327.945C131.862 332.164 143.702 332.164 151.007 327.945L213.291 291.985C217.322 289.655 219.116 286.506 218.707 283.483C218.361 285.939 216.566 288.364 213.291 290.253Z" fill="white"/>
<path d="M-0.0117416 730.146C-4.26268 730.146 -8.51362 729.201 -11.7569 727.344L-74.0411 691.384C-77.2844 689.526 -79.0477 687.007 -79.0477 684.299C-79.0477 681.591 -77.2529 679.072 -74.0411 677.214L-11.7569 641.254C-5.3018 637.507 5.24683 637.507 11.7335 641.254L74.0176 677.214C77.2609 679.072 79.0243 681.591 79.0243 684.299C79.0243 687.007 77.2294 689.526 74.0176 691.384L11.7335 727.344C8.49015 729.201 4.2392 730.146 -0.0117416 730.146ZM-11.2216 726.399C-5.04989 729.957 4.99493 729.957 11.1667 726.399L73.4508 690.439C76.3477 688.77 77.9222 686.598 77.9222 684.299C77.9222 682 76.3477 679.828 73.4508 678.159L11.1667 642.199C4.99493 638.641 -5.04989 638.641 -11.2216 642.199L-73.5058 678.159C-76.4027 679.828 -77.9771 682 -77.9771 684.299C-77.9771 686.598 -76.4027 688.77 -73.5058 690.439L-11.2216 726.399Z" fill="#42E8E0"/>
<path opacity="0.4" d="M80.9766 670.475V649.158L77.072 646.985C75.9699 653.66 68.1293 658.037 61.5797 658.95L16.9606 685.054L-2.53078 692.076L-64.689 659.99L-63.2405 659.171C-68.5621 656.683 -71.4275 651.015 -74.293 645.82L-78.4809 648.307L-81 649.032V670.727C-81 673.498 -79.1737 676.269 -75.521 678.347L-13.2369 714.307C-5.93153 718.527 5.90812 718.527 13.2134 714.307L75.4976 678.347C79.0873 676.269 80.9136 673.561 80.9766 670.853C80.9766 670.727 80.9766 670.601 80.9766 670.475Z" fill="#42E8E0"/>
<path d="M80.9766 651.519V637.412L77.072 635.24C75.9699 641.915 68.1293 646.292 61.5797 647.205L16.9606 673.309L-2.53078 680.331L-64.689 648.245L-63.2405 647.426C-68.5621 644.938 -71.4275 639.27 -74.293 634.075L-78.4809 636.562L-81 637.287V651.771C-81 654.542 -79.1737 657.313 -75.521 659.391L-13.2369 695.351C-5.93153 699.571 5.90812 699.571 13.2134 695.351L75.4976 659.391C79.0873 657.313 80.9136 654.605 80.9766 651.897C80.9766 651.771 80.9766 651.645 80.9766 651.519Z" fill="url(#paint17_linear_913_2259)"/>
<path opacity="0.3" d="M61.5797 647.205L16.9606 673.309L0.0197754 679.418V698.5C4.80602 698.5 9.59227 697.461 13.2449 695.351L75.5291 659.391C79.1188 657.313 80.9451 654.605 81.0081 651.897C81.0081 651.771 81.0081 651.645 81.0081 651.519V637.412L77.4499 635.429H77.072C75.844 641.978 68.0978 646.292 61.6112 647.205H61.5797Z" fill="#0F054C"/>
<path d="M-13.2369 681.024L-75.521 645.064C-82.8263 640.845 -82.8263 634.012 -75.521 629.792L-13.2369 593.833C-5.93153 589.613 5.90812 589.613 13.2134 593.833L75.4976 629.792C82.8029 634.012 82.8029 640.845 75.4976 645.064L13.2134 681.024C5.90812 685.244 -5.93153 685.244 -13.2369 681.024Z" fill="url(#paint18_linear_913_2259)"/>
<path d="M-0.0116615 674.475C-3.85325 674.475 -7.69484 673.624 -10.6233 671.956L-59.2729 643.868C-62.2013 642.168 -63.8073 639.9 -63.8073 637.444C-63.8073 634.988 -62.2013 632.69 -59.2729 630.989L-10.6233 602.901C-4.76641 599.532 4.7431 599.532 10.6 602.901L59.2496 630.989C62.178 632.69 63.7839 634.957 63.7839 637.413C63.7839 639.869 62.178 642.168 59.2496 643.868L10.6 671.956C7.67152 673.656 3.82993 674.475 -0.0116615 674.475ZM-0.0116615 601.421C-3.66432 601.421 -7.28548 602.209 -10.088 603.815L-58.7376 631.902C-61.3197 633.382 -62.7366 635.335 -62.7366 637.413C-62.7366 639.46 -61.3197 641.412 -58.7376 642.892L-10.088 670.979C-4.54599 674.191 4.4912 674.191 10.0332 670.979L58.6828 642.892C61.2649 641.412 62.6818 639.46 62.6818 637.381C62.6818 635.335 61.2649 633.382 58.6828 631.902L10.0332 603.815C7.26218 602.209 3.60951 601.421 -0.0116615 601.421Z" fill="#5351AF"/>
<path d="M75.4976 645.064L13.2135 681.024C5.90814 685.244 -5.93151 685.244 -13.2368 681.024L-75.521 645.064C-78.7958 643.175 -80.5906 640.782 -80.937 638.294C-81.3778 641.349 -79.5515 644.466 -75.521 646.796L-13.2368 682.756C-5.93151 686.976 5.90814 686.976 13.2135 682.756L75.4976 646.796C79.5281 644.466 81.323 641.317 80.9136 638.294C80.5672 640.751 78.7724 643.175 75.4976 645.064Z" fill="white"/>
<path d="M531.765 918.825C526.57 918.825 521.343 917.691 517.375 915.393L267.105 770.892C263.169 768.625 260.996 765.571 260.996 762.264C260.996 758.958 263.169 755.935 267.105 753.637L319.879 723.219L320.415 724.163L267.64 754.581C264.05 756.66 262.067 759.368 262.067 762.264C262.067 765.161 264.05 767.869 267.64 769.916L517.91 914.417C525.531 918.825 537.937 918.825 545.557 914.417L728.725 809.056L729.261 810.001L546.092 915.361C542.125 917.66 536.929 918.794 531.702 918.794L531.765 918.825Z" fill="#42E8E0"/>
<path d="M22.723 445.522C17.7478 445.522 12.7411 444.42 8.93101 442.247L-53.3531 406.287C-57.2262 404.052 -59.3674 400.997 -59.3674 397.691C-59.3674 394.385 -57.2262 391.33 -53.3531 389.095L8.93101 353.135C16.5197 348.758 28.8947 348.758 36.4834 353.135L98.7676 389.095C102.641 391.33 104.782 394.385 104.782 397.691C104.782 400.997 102.641 404.052 98.7676 406.287L36.4834 442.247C32.6733 444.451 27.6981 445.522 22.723 445.522ZM10.0331 440.326C17.0236 444.357 28.3909 444.357 35.3813 440.326L97.6655 404.366C100.846 402.54 102.578 400.147 102.578 397.691C102.578 395.203 100.846 392.842 97.6655 391.015L35.3813 355.056C28.3909 351.025 17.0236 351.025 10.0331 355.056L-52.251 391.015C-55.4314 392.842 -57.1632 395.235 -57.1632 397.691C-57.1632 400.147 -55.4314 402.54 -52.251 404.366L10.0331 440.326Z" fill="#F08F3E"/>
<path d="M228.878 877.607C223.903 877.607 218.896 876.504 215.117 874.3L152.833 838.34C148.96 836.105 146.819 833.05 146.819 829.744C146.819 826.438 148.96 823.383 152.833 821.148L215.117 785.188C222.706 780.811 235.081 780.811 242.67 785.188L304.954 821.148C308.827 823.383 310.968 826.438 310.968 829.744C310.968 833.05 308.827 836.105 304.954 838.34L242.67 874.3C238.86 876.504 233.884 877.607 228.909 877.607H228.878ZM228.878 784.086C224.281 784.086 219.715 785.093 216.219 787.109L153.935 823.069C150.755 824.895 149.023 827.288 149.023 829.744C149.023 832.2 150.755 834.593 153.935 836.42L216.219 872.379C223.21 876.41 234.577 876.41 241.568 872.379L303.852 836.42C307.032 834.593 308.764 832.2 308.764 829.744C308.764 827.288 307.032 824.895 303.852 823.069L241.568 787.109C238.072 785.093 233.475 784.086 228.878 784.086Z" fill="#F08F3E"/>
<path d="M133.027 759.556C130.004 759.556 127.013 758.769 124.336 757.226L41.679 709.395L42.2143 708.451L124.871 756.282C129.91 759.179 136.144 759.179 141.183 756.282L259.39 688.078L259.925 689.022L141.718 757.226C139.041 758.769 136.018 759.556 133.027 759.556Z" fill="#42E8E0"/>
<path opacity="0.4" d="M838.148 246.83C843.904 246.83 848.57 242.163 848.57 236.407C848.57 230.651 843.904 225.984 838.148 225.984C832.391 225.984 827.725 230.651 827.725 236.407C827.725 242.163 832.391 246.83 838.148 246.83Z" fill="#42E8E0"/>
<path opacity="0.4" d="M838.148 240.941C840.652 240.941 842.682 238.911 842.682 236.407C842.682 233.903 840.652 231.873 838.148 231.873C835.643 231.873 833.613 233.903 833.613 236.407C833.613 238.911 835.643 240.941 838.148 240.941Z" fill="#42E8E0"/>
<path opacity="0.4" d="M679.918 64.6061C685.675 64.6061 690.341 59.9397 690.341 54.1834C690.341 48.4271 685.675 43.7607 679.918 43.7607C674.162 43.7607 669.496 48.4271 669.496 54.1834C669.496 59.9397 674.162 64.6061 679.918 64.6061Z" fill="#42E8E0"/>
<path opacity="0.4" d="M679.918 58.7176C682.423 58.7176 684.453 56.6875 684.453 54.1833C684.453 51.679 682.423 49.6489 679.918 49.6489C677.414 49.6489 675.384 51.679 675.384 54.1833C675.384 56.6875 677.414 58.7176 679.918 58.7176Z" fill="#42E8E0"/>
</g>
<g clip-path="url(#clip1_913_2259)">
<path d="M400.654 270.674L387.477 263.054L387.972 260L401.177 267.62L400.654 270.674Z" fill="#42E8E0"/>
<path d="M411.933 277.166L405.331 273.37L405.854 270.316L412.428 274.113L411.933 277.166Z" fill="#42E8E0"/>
<path d="M403.35 280.054L397.738 276.808L398.261 273.782L403.873 277.028L403.35 280.054Z" fill="#42E8E0"/>
<path d="M412.786 285.502L406.184 281.705L406.679 278.652L413.281 282.448L412.786 285.502Z" fill="#42E8E0"/>
<path d="M422.47 298.927L396.555 283.961L397.05 280.908L422.965 295.901L422.47 298.927Z" fill="#42E8E0"/>
<path d="M399.994 358.788L374.08 343.823L374.575 340.769L400.517 355.762L399.994 358.788Z" fill="#42E8E0"/>
<path d="M409.953 364.565L403.378 360.741L403.873 357.688L410.475 361.511L409.953 364.565Z" fill="#42E8E0"/>
<path d="M400.957 294.36L395.345 291.114L395.84 288.06L401.48 291.306L400.957 294.36Z" fill="#42E8E0"/>
<path d="M410.393 299.807L403.79 295.983L404.286 292.957L410.888 296.753L410.393 299.807Z" fill="#42E8E0"/>
<path d="M408.385 306.492L394.134 298.266L394.657 295.213L408.907 303.438L408.385 306.492Z" fill="#42E8E0"/>
<path d="M417.93 312.021L411.328 308.197L411.851 305.144L418.453 308.967L417.93 312.021Z" fill="#42E8E0"/>
<path d="M427.531 317.551L420.929 313.727L421.452 310.673L428.027 314.497L427.531 317.551Z" fill="#42E8E0"/>
<path d="M442.992 326.492L430.503 319.284L431.025 316.23L443.515 323.438L442.992 326.492Z" fill="#42E8E0"/>
<path d="M433.116 336.45L426.514 332.654L427.036 329.6L433.639 333.424L433.116 336.45Z" fill="#42E8E0"/>
<path d="M448.604 345.391L436.115 338.183L436.61 335.129L449.099 342.337L448.604 345.391Z" fill="#42E8E0"/>
<path d="M398.343 316.395L391.741 312.571L392.264 309.518L398.866 313.341L398.343 316.395Z" fill="#42E8E0"/>
<path d="M407.944 321.925L401.342 318.101L401.837 315.047L408.44 318.871L407.944 321.925Z" fill="#42E8E0"/>
<path d="M423.405 330.866L410.915 323.658L411.438 320.604L423.928 327.812L423.405 330.866Z" fill="#42E8E0"/>
<path d="M443.68 334.717L437.077 330.92L437.6 327.867L444.202 331.663L443.68 334.717Z" fill="#42E8E0"/>
<path d="M453.281 340.246L446.678 336.45L447.201 333.396L453.776 337.193L453.281 340.246Z" fill="#42E8E0"/>
<path d="M468.741 349.187L456.279 341.979L456.774 338.926L469.264 346.133L468.741 349.187Z" fill="#42E8E0"/>
<path d="M420.296 370.507L413.694 366.711L414.189 363.657L420.792 367.454L420.296 370.507Z" fill="#42E8E0"/>
<path d="M435.757 379.448L423.267 372.241L423.79 369.187L436.28 376.395L435.757 379.448Z" fill="#42E8E0"/>
<path d="M395.95 330.673L389.348 326.876L389.87 323.823L396.445 327.647L395.95 330.673Z" fill="#42E8E0"/>
<path d="M411.411 339.614L398.949 332.406L399.444 329.353L411.933 336.56L411.411 339.614Z" fill="#42E8E0"/>
<path d="M427.476 382.501L420.874 378.705L421.397 375.651L427.972 379.448L427.476 382.501Z" fill="#42E8E0"/>
<path d="M442.937 391.442L430.447 384.235L430.97 381.181L443.46 388.389L442.937 391.442Z" fill="#42E8E0"/>
<path d="M442.194 310.316L435.592 306.519L436.087 303.466L442.689 307.262L442.194 310.316Z" fill="#42E8E0"/>
<path d="M432.208 304.566L425.606 300.77L426.128 297.716L432.731 301.513L432.208 304.566Z" fill="#42E8E0"/>
<path d="M457.655 319.256L445.165 312.049L445.688 308.995L458.177 316.203L457.655 319.256Z" fill="#42E8E0"/>
<path d="M398.894 308.858L392.951 305.419L393.447 302.365L399.416 305.804L398.894 308.858Z" fill="#42E8E0"/>
<path d="M416.555 319.036L402.085 310.701L402.58 307.647L417.05 316.01L416.555 319.036Z" fill="#42E8E0"/>
<path d="M434.189 329.242L419.719 320.879L420.241 317.826L434.712 326.189L434.189 329.242Z" fill="#42E8E0"/>
<path d="M466.816 324.538L460.873 321.127L461.396 318.073L467.338 321.512L466.816 324.538Z" fill="#42E8E0"/>
<path d="M484.477 334.744L470.007 326.381L470.529 323.328L485 331.691L484.477 334.744Z" fill="#42E8E0"/>
<path d="M502.138 344.923L487.668 336.588L488.163 333.534L502.633 341.87L502.138 344.923Z" fill="#42E8E0"/>
<path d="M405.138 328.142L390.668 319.807L391.191 316.753L405.661 325.088L405.138 328.142Z" fill="#42E8E0"/>
<path d="M412.759 332.544L408.33 329.985L408.825 326.932L413.281 329.49L412.759 332.544Z" fill="#42E8E0"/>
<path d="M420.406 336.973L415.977 334.387L416.472 331.361L420.929 333.919L420.406 336.973Z" fill="#42E8E0"/>
<path d="M434.546 345.116L423.597 338.816L424.12 335.762L435.042 342.062L434.546 345.116Z" fill="#42E8E0"/>
<path d="M450.365 330.728L445.936 328.169L446.431 325.116L450.887 327.702L450.365 330.728Z" fill="#42E8E0"/>
<path d="M464.505 338.898L453.583 332.599L454.078 329.545L465.027 335.845L464.505 338.898Z" fill="#42E8E0"/>
<path d="M467.476 340.604L456.554 334.304L457.05 331.25L467.998 337.55L467.476 340.604Z" fill="#42E8E0"/>
<path d="M409.292 379.861L395.042 371.608L395.537 368.582L409.788 376.807L409.292 379.861Z" fill="#42E8E0"/>
<path d="M418.811 385.363L412.236 381.539L412.731 378.485L419.333 382.309L418.811 385.363Z" fill="#42E8E0"/>
<path d="M428.412 390.892L421.809 387.096L422.332 384.042L428.934 387.838L428.412 390.892Z" fill="#42E8E0"/>
<path d="M443.9 399.833L431.41 392.625L431.905 389.572L444.395 396.779L443.9 399.833Z" fill="#42E8E0"/>
<path d="M453.776 405.555L447.201 401.731L447.696 398.677L454.299 402.501L453.776 405.555Z" fill="#42E8E0"/>
<path d="M469.264 414.468L456.774 407.26L457.297 404.234L469.787 411.414L469.264 414.468Z" fill="#42E8E0"/>
<path d="M421.782 402.749L415.207 398.953L415.702 395.899L422.305 399.695L421.782 402.749Z" fill="#42E8E0"/>
<path d="M437.27 411.689L424.78 404.482L425.303 401.428L437.765 408.636L437.27 411.689Z" fill="#42E8E0"/>
<path d="M387.339 382.859L380.737 379.063L381.26 376.009L387.835 379.806L387.339 382.859Z" fill="#42E8E0"/>
<path d="M396.913 388.389L390.338 384.592L390.833 381.539L397.436 385.362L396.913 388.389Z" fill="#42E8E0"/>
<path d="M412.401 397.33L399.911 390.122L400.434 387.068L412.924 394.276L412.401 397.33Z" fill="#42E8E0"/>
<path d="M399.774 382.199L393.832 378.76L394.354 375.734L400.297 379.146L399.774 382.199Z" fill="#42E8E0"/>
<path d="M417.435 392.405L402.965 384.042L403.488 380.988L417.958 389.351L417.435 392.405Z" fill="#42E8E0"/>
<path d="M435.097 402.584L420.626 394.248L421.122 391.195L435.592 399.53L435.097 402.584Z" fill="#42E8E0"/>
<path d="M382.47 387.894L368 379.53L368.523 376.504L382.965 384.84L382.47 387.894Z" fill="#42E8E0"/>
<path d="M390.09 392.295L385.661 389.737L386.157 386.683L390.613 389.242L390.09 392.295Z" fill="#42E8E0"/>
<path d="M397.738 396.696L393.282 394.138L393.804 391.084L398.233 393.67L397.738 396.696Z" fill="#42E8E0"/>
<path d="M411.851 404.867L400.929 398.567L401.452 395.514L412.373 401.813L411.851 404.867Z" fill="#42E8E0"/>
<path d="M414.822 406.573L403.9 400.273L404.423 397.219L415.345 403.519L414.822 406.573Z" fill="#42E8E0"/>
<path d="M388.99 360.274L384.533 357.715L385.056 354.662L389.485 357.248L388.99 360.274Z" fill="#42E8E0"/>
<path d="M403.103 368.444L392.181 362.144L392.704 359.091L403.625 365.391L403.103 368.444Z" fill="#42E8E0"/>
<path d="M417.545 376.78L406.624 370.452L407.119 367.426L418.068 373.726L417.545 376.78Z" fill="#42E8E0"/>
<path d="M473.17 424.592L466.568 420.768L467.091 417.714L473.693 421.538L473.17 424.592Z" fill="#42E8E0"/>
<path d="M488.658 433.505L476.169 426.297L476.692 423.244L489.154 430.451L488.658 433.505Z" fill="#42E8E0"/>
<path d="M448.824 410.507L437.875 404.207L438.398 401.153L449.319 407.481L448.824 410.507Z" fill="#42E8E0"/>
<path d="M463.239 418.842L452.318 412.542L452.84 409.489L463.762 415.789L463.239 418.842Z" fill="#42E8E0"/>
<path d="M381.26 330.04L376.803 327.482L377.326 324.428L381.755 326.987L381.26 330.04Z" fill="#42E8E0"/>
<path d="M395.372 338.21L384.451 331.883L384.974 328.83L395.895 335.157L395.372 338.21Z" fill="#42E8E0"/>
<path d="M409.815 346.546L398.894 340.219L399.389 337.165L410.338 343.492L409.815 346.546Z" fill="#42E8E0"/>
<path d="M627.914 457.686C626.923 457.686 625.878 457.383 624.86 456.806L536.526 405.802C532.922 403.712 530.583 398.457 531.326 394.056L536.966 360.356C537.351 358.073 538.534 356.285 540.212 355.514C541.78 354.772 543.596 354.937 545.329 355.954L633.691 406.958C637.294 409.049 639.633 414.303 638.89 418.705L633.25 452.404C632.865 454.687 631.682 456.476 630.004 457.246C629.344 457.549 628.656 457.714 627.941 457.714L627.914 457.686ZM542.248 356.285C541.725 356.285 541.202 356.395 540.735 356.615C539.442 357.22 538.506 358.65 538.204 360.549L532.564 394.248C531.904 398.182 533.967 402.859 537.158 404.702L625.493 455.705C626.868 456.503 628.271 456.641 629.454 456.09C630.747 455.485 631.682 454.055 631.985 452.157L637.625 418.457C638.285 414.523 636.221 409.846 633.03 408.003L544.669 357C543.843 356.532 543.018 356.285 542.22 356.285H542.248Z" fill="#42E8E0"/>
<path d="M618.202 515.622C617.212 515.622 616.167 515.319 615.149 514.742L526.787 463.738C523.183 461.648 520.845 456.393 521.588 451.992L527.227 418.292C527.612 416.009 528.795 414.221 530.473 413.45C532.014 412.708 533.83 412.873 535.59 413.891L623.925 464.894C627.528 466.985 629.867 472.239 629.124 476.641L623.484 510.34C623.099 512.624 621.916 514.412 620.238 515.182C619.578 515.485 618.89 515.65 618.175 515.65L618.202 515.622ZM615.754 513.669C617.13 514.467 618.533 514.604 619.716 514.054C621.008 513.449 621.944 512.018 622.246 510.12L627.886 476.421C628.546 472.487 626.483 467.81 623.292 465.967L534.958 414.963C533.582 414.166 532.179 414.028 530.996 414.578C529.703 415.183 528.768 416.614 528.465 418.512L522.826 452.212C522.165 456.146 524.229 460.822 527.42 462.666L615.782 513.669H615.754Z" fill="#42E8E0"/>
<path style="mix-blend-mode:lighten" opacity="0.5" d="M544.448 402.171C546.017 403.079 547.42 402.749 547.915 401.318L558.203 373.176C559.386 369.957 564.201 372.873 565.218 377.412L571.573 405.747C572.041 407.811 573.471 409.874 575.095 410.837L576.608 411.717C578.093 412.57 579.414 412.322 579.991 411.084L582.082 406.628C583.375 403.877 587.722 406.463 588.904 410.727C589.455 412.68 590.803 414.551 592.343 415.431L593.664 416.201C595.259 417.137 596.69 416.751 597.185 415.266L599.111 409.379C600.184 406.05 605.025 408.829 606.126 413.395L612.48 439.612C612.976 441.675 614.434 443.684 616.029 444.591L544.476 402.171H544.448Z" fill="url(#paint19_linear_913_2259)"/>
<path d="M604.805 502.307C603.045 501.317 601.504 499.143 600.954 496.915L594.599 470.698C593.911 467.92 591.655 465.746 590.087 465.691C589.482 465.691 589.015 465.994 588.794 466.709L586.869 472.596C586.594 473.422 586.071 474.027 585.356 474.302C584.53 474.632 583.485 474.467 582.467 473.889L581.147 473.119C579.469 472.156 578.011 470.148 577.433 468.03C576.69 465.334 574.572 463.38 573.059 463.27C572.454 463.215 572.041 463.463 571.766 464.041L569.675 468.497C569.345 469.185 568.822 469.653 568.162 469.873C567.337 470.12 566.401 469.955 565.411 469.405L563.898 468.525C562.11 467.507 560.569 465.306 560.074 463.05L553.719 434.715C553.087 431.909 550.831 429.708 549.235 429.598C548.575 429.543 548.162 429.873 547.915 430.561L537.626 458.704C537.323 459.502 536.801 460.052 536.113 460.299C535.288 460.602 534.27 460.437 533.252 459.859L533.857 458.786C534.545 459.171 535.178 459.309 535.673 459.116C536.03 458.979 536.278 458.704 536.443 458.264L546.732 430.121C547.172 428.911 548.08 428.305 549.29 428.36C551.381 428.498 554.132 430.974 554.902 434.44L561.257 462.775C561.697 464.673 563.018 466.599 564.476 467.452L565.989 468.332C566.649 468.717 567.254 468.855 567.749 468.69C568.079 468.58 568.327 468.36 568.52 467.975L570.61 463.518C571.106 462.473 572.041 461.95 573.141 462.032C575.37 462.225 577.763 464.701 578.588 467.7C579.083 469.488 580.349 471.248 581.724 472.046L583.045 472.816C583.733 473.229 584.393 473.339 584.861 473.146C585.218 473.009 585.493 472.706 585.658 472.211L587.584 466.324C587.997 465.086 588.932 464.453 590.115 464.426C592.178 464.508 594.957 466.902 595.782 470.368L602.137 496.585C602.604 498.483 603.925 500.354 605.383 501.179L604.778 502.252L604.805 502.307Z" fill="#42E8E0"/>
</g>
<defs>
<linearGradient id="paint0_linear_913_2259" x1="639.267" y1="623.967" x2="109.851" y2="623.967" gradientUnits="userSpaceOnUse">
<stop stop-color="#5761D7"/>
<stop offset="0.18" stop-color="#5B65D8"/>
<stop offset="0.39" stop-color="#6A72DE"/>
<stop offset="0.61" stop-color="#8188E8"/>
<stop offset="0.85" stop-color="#A2A6F5"/>
<stop offset="1" stop-color="#BCBEFF"/>
</linearGradient>
<linearGradient id="paint1_linear_913_2259" x1="471.307" y1="611.655" x2="-58.1079" y2="611.655" gradientUnits="userSpaceOnUse">
<stop stop-color="#C0BFF6"/>
<stop offset="0.29" stop-color="#C4C3F6"/>
<stop offset="0.64" stop-color="#D2D2F9"/>
<stop offset="1" stop-color="#E9E9FD"/>
</linearGradient>
<linearGradient id="paint2_linear_913_2259" x1="461.577" y1="272.871" x2="1056.43" y2="272.871" gradientUnits="userSpaceOnUse">
<stop stop-color="#42E8E0"/>
<stop offset="0.11" stop-color="#36B5BF"/>
<stop offset="0.22" stop-color="#2C87A0"/>
<stop offset="0.34" stop-color="#235F86"/>
<stop offset="0.46" stop-color="#1B3E71"/>
<stop offset="0.58" stop-color="#162560"/>
<stop offset="0.71" stop-color="#121355"/>
<stop offset="0.85" stop-color="#0F084E"/>
<stop offset="1" stop-color="#0F054C"/>
</linearGradient>
<linearGradient id="paint3_linear_913_2259" x1="422.248" y1="294.913" x2="1017.1" y2="294.913" gradientUnits="userSpaceOnUse">
<stop stop-color="#42E8E0"/>
<stop offset="0.11" stop-color="#36B5BF"/>
<stop offset="0.22" stop-color="#2C87A0"/>
<stop offset="0.34" stop-color="#235F86"/>
<stop offset="0.46" stop-color="#1B3E71"/>
<stop offset="0.58" stop-color="#162560"/>
<stop offset="0.71" stop-color="#121355"/>
<stop offset="0.85" stop-color="#0F084E"/>
<stop offset="1" stop-color="#0F054C"/>
</linearGradient>
<linearGradient id="paint4_linear_913_2259" x1="699.284" y1="379.396" x2="324.634" y2="379.396" gradientUnits="userSpaceOnUse">
<stop stop-color="#C0BFF6"/>
<stop offset="0.29" stop-color="#C4C3F6"/>
<stop offset="0.64" stop-color="#D2D2F9"/>
<stop offset="1" stop-color="#E9E9FD"/>
</linearGradient>
<linearGradient id="paint5_linear_913_2259" x1="699.284" y1="475.499" x2="634.953" y2="475.499" gradientUnits="userSpaceOnUse">
<stop stop-color="#5761D7"/>
<stop offset="0.18" stop-color="#5B65D8"/>
<stop offset="0.39" stop-color="#6A72DE"/>
<stop offset="0.61" stop-color="#8188E8"/>
<stop offset="0.85" stop-color="#A2A6F5"/>
<stop offset="1" stop-color="#BCBEFF"/>
</linearGradient>
<linearGradient id="paint6_linear_913_2259" x1="649.091" y1="580.324" x2="119.959" y2="580.324" gradientUnits="userSpaceOnUse">
<stop stop-color="#5761D7"/>
<stop offset="0.18" stop-color="#5B65D8"/>
<stop offset="0.39" stop-color="#6A72DE"/>
<stop offset="0.61" stop-color="#8188E8"/>
<stop offset="0.85" stop-color="#A2A6F5"/>
<stop offset="1" stop-color="#BCBEFF"/>
</linearGradient>
<linearGradient id="paint7_linear_913_2259" x1="837.455" y1="565.839" x2="834.306" y2="565.839" gradientUnits="userSpaceOnUse">
<stop stop-color="#C0BFF6"/>
<stop offset="0.29" stop-color="#C4C3F6"/>
<stop offset="0.64" stop-color="#D2D2F9"/>
<stop offset="1" stop-color="#E9E9FD"/>
</linearGradient>
<linearGradient id="paint8_linear_913_2259" x1="852.57" y1="463.88" x2="323.438" y2="463.88" gradientUnits="userSpaceOnUse">
<stop stop-color="#5761D7"/>
<stop offset="0.18" stop-color="#5B65D8"/>
<stop offset="0.39" stop-color="#6A72DE"/>
<stop offset="0.61" stop-color="#8188E8"/>
<stop offset="0.85" stop-color="#A2A6F5"/>
<stop offset="1" stop-color="#BCBEFF"/>
</linearGradient>
<linearGradient id="paint9_linear_913_2259" x1="674.786" y1="449.395" x2="145.37" y2="449.395" gradientUnits="userSpaceOnUse">
<stop stop-color="#C0BFF6"/>
<stop offset="0.29" stop-color="#C4C3F6"/>
<stop offset="0.64" stop-color="#D2D2F9"/>
<stop offset="1" stop-color="#E9E9FD"/>
</linearGradient>
<linearGradient id="paint10_linear_913_2259" x1="706.463" y1="709.521" x2="834.968" y2="783.739" gradientUnits="userSpaceOnUse">
<stop stop-color="#BCBEFF"/>
<stop offset="0.23" stop-color="#AAADF7"/>
<stop offset="0.68" stop-color="#7B82E5"/>
<stop offset="1" stop-color="#5761D7"/>
</linearGradient>
<linearGradient id="paint11_linear_913_2259" x1="714.178" y1="704.546" x2="828.796" y2="770.703" gradientUnits="userSpaceOnUse">
<stop offset="0.24" stop-color="#5761D7"/>
<stop offset="0.39" stop-color="#7A81E5"/>
<stop offset="0.55" stop-color="#979BF0"/>
<stop offset="0.7" stop-color="#ABAEF8"/>
<stop offset="0.85" stop-color="#B7BAFD"/>
<stop offset="1" stop-color="#BCBEFF"/>
</linearGradient>
<linearGradient id="paint12_linear_913_2259" x1="690.372" y1="737.577" x2="852.318" y2="737.577" gradientUnits="userSpaceOnUse">
<stop stop-color="#E9E9FD"/>
<stop offset="0.36" stop-color="#D2D2F9"/>
<stop offset="0.71" stop-color="#C4C3F6"/>
<stop offset="1" stop-color="#C0BFF6"/>
</linearGradient>
<linearGradient id="paint13_linear_913_2259" x1="692.86" y1="737.577" x2="849.83" y2="737.577" gradientUnits="userSpaceOnUse">
<stop stop-color="#E9E9FD"/>
<stop offset="0.36" stop-color="#D2D2F9"/>
<stop offset="0.71" stop-color="#C4C3F6"/>
<stop offset="1" stop-color="#C0BFF6"/>
</linearGradient>
<linearGradient id="paint14_linear_913_2259" x1="771.329" y1="777.001" x2="771.329" y2="515.395" gradientUnits="userSpaceOnUse">
<stop stop-color="#41E6DF" stop-opacity="0.99"/>
<stop offset="0.11" stop-color="#35B2BD" stop-opacity="0.76"/>
<stop offset="0.22" stop-color="#2B849F" stop-opacity="0.56"/>
<stop offset="0.34" stop-color="#225D85" stop-opacity="0.39"/>
<stop offset="0.46" stop-color="#1B3D70" stop-opacity="0.25"/>
<stop offset="0.58" stop-color="#162460" stop-opacity="0.14"/>
<stop offset="0.7" stop-color="#121255" stop-opacity="0.06"/>
<stop offset="0.83" stop-color="#0F084E" stop-opacity="0.01"/>
<stop offset="0.98" stop-color="#0F054C" stop-opacity="0"/>
</linearGradient>
<linearGradient id="paint15_linear_913_2259" x1="72.9156" y1="254.576" x2="201.42" y2="328.763" gradientUnits="userSpaceOnUse">
<stop stop-color="#BCBEFF"/>
<stop offset="0.23" stop-color="#AAADF7"/>
<stop offset="0.68" stop-color="#7B82E5"/>
<stop offset="1" stop-color="#5761D7"/>
</linearGradient>
<linearGradient id="paint16_linear_913_2259" x1="56.7935" y1="282.633" x2="218.739" y2="282.633" gradientUnits="userSpaceOnUse">
<stop stop-color="#E9E9FD"/>
<stop offset="0.36" stop-color="#D2D2F9"/>
<stop offset="0.71" stop-color="#C4C3F6"/>
<stop offset="1" stop-color="#C0BFF6"/>
</linearGradient>
<linearGradient id="paint17_linear_913_2259" x1="-64.8779" y1="609.356" x2="63.6265" y2="683.575" gradientUnits="userSpaceOnUse">
<stop stop-color="#BCBEFF"/>
<stop offset="0.23" stop-color="#AAADF7"/>
<stop offset="0.68" stop-color="#7B82E5"/>
<stop offset="1" stop-color="#5761D7"/>
</linearGradient>
<linearGradient id="paint18_linear_913_2259" x1="-81" y1="637.413" x2="80.9766" y2="637.413" gradientUnits="userSpaceOnUse">
<stop stop-color="#E9E9FD"/>
<stop offset="0.36" stop-color="#D2D2F9"/>
<stop offset="0.71" stop-color="#C4C3F6"/>
<stop offset="1" stop-color="#C0BFF6"/>
</linearGradient>
<linearGradient id="paint19_linear_913_2259" x1="551.216" y1="392.35" x2="678.174" y2="446.655" gradientUnits="userSpaceOnUse">
<stop stop-color="#42E8E0"/>
<stop offset="0.11" stop-color="#36B5BF"/>
<stop offset="0.22" stop-color="#2C87A0"/>
<stop offset="0.34" stop-color="#235F86"/>
<stop offset="0.46" stop-color="#1B3E71"/>
<stop offset="0.58" stop-color="#162560"/>
<stop offset="0.71" stop-color="#121355"/>
<stop offset="0.85" stop-color="#0F084E"/>
<stop offset="1" stop-color="#0F054C"/>
</linearGradient>
<clipPath id="clip0_913_2259">
<rect width="1172" height="918.392" fill="white" transform="translate(-81 0.432617)"/>
</clipPath>
<clipPath id="clip1_913_2259">
<rect width="271" height="255.622" fill="white" transform="translate(368 260)"/>
</clipPath>
</defs>
</svg>
