<svg width="24" height="24" viewBox="0 0 24 24" fill="none" xmlns="http://www.w3.org/2000/svg">
<path d="M12.5 17C13 14.6 15 12.7 17.4 12.4C18 12.3 18.7 12.3 19.3 12.4C20.7 12.7 22.1 11.6 22.1 10.1L22 6C22 4.9 21.1 4 20 4H4C2.9 4 2 4.9 2 6V18C2 19.1 2.9 20 4 20H10C11.2 20 12.2 19 12.3 17.8C12.4 17.5 12.4 17.3 12.5 17ZM4 8V6L12 11L20 6V8L12 13L4 8Z" fill="#F08F3E"/>
<g clip-path="url(#clip0_764_1557)">
<circle cx="18.5" cy="18.5" r="4.5" fill="#F08F3E"/>
<path d="M18.5 13.4238C15.7004 13.4238 13.4231 15.7012 13.4231 18.5008C13.4231 21.3003 15.7004 23.5777 18.5 23.5777C21.2996 23.5777 23.5769 21.3003 23.5769 18.5008C23.5769 15.7012 21.2996 13.4238 18.5 13.4238ZM18.5 14.27C20.8418 14.27 22.7308 16.159 22.7308 18.5008C22.7308 20.8425 20.8418 22.7315 18.5 22.7315C16.1582 22.7315 14.2692 20.8425 14.2692 18.5008C14.2692 16.159 16.1582 14.27 18.5 14.27Z" fill="#F08F3E"/>
<path d="M19.8312 16.1116C19.8742 16.0488 19.9271 16.0158 19.9899 16.0058C20.0527 15.9959 20.1188 15.9976 20.1618 16.0191L20.5848 16.3231C20.7534 16.4074 20.8013 16.5264 20.7171 16.6537L18.1786 20.382C18.0943 20.5093 17.9588 20.5539 17.8745 20.5539C17.7473 20.5539 17.6283 20.4647 17.544 20.4217L16.0632 18.9409C15.9789 18.8567 15.9789 18.6848 16.0632 18.5575L16.4466 18.1741C16.5309 18.0898 16.6929 18.0997 16.7772 18.227L17.7555 19.1921L19.8312 16.1116Z" fill="white"/>
</g>
<defs>
<clipPath id="clip0_764_1557">
<rect width="11" height="11" fill="white" transform="translate(13 13)"/>
</clipPath>
</defs>
</svg>
