<svg width="31" height="31" viewBox="0 0 31 31" fill="none" xmlns="http://www.w3.org/2000/svg">
<path d="M23.25 10.334C23.25 8.27856 22.4335 6.30731 20.9801 4.85391C19.5267 3.4005 17.5554 2.58398 15.5 2.58398C13.4446 2.58398 11.4733 3.4005 10.0199 4.85391C8.56652 6.30731 7.75 8.27856 7.75 10.334C7.75 19.3757 3.875 21.959 3.875 21.959H27.125C27.125 21.959 23.25 19.3757 23.25 10.334Z" stroke="#F08F3E" stroke-width="2" stroke-linecap="round" stroke-linejoin="round"/>
<path d="M17.7346 27.125C17.5075 27.5165 17.1816 27.8414 16.7894 28.0673C16.3972 28.2932 15.9526 28.4121 15.5 28.4121C15.0475 28.4121 14.6028 28.2932 14.2106 28.0673C13.8185 27.8414 13.4925 27.5165 13.2654 27.125" stroke="#F08F3E" stroke-width="2" stroke-linecap="round" stroke-linejoin="round"/>
</svg>
