<svg xmlns="http://www.w3.org/2000/svg" width="22" height="22" viewBox="0 0 22 22" fill="none">
<path d="M21 10.4445C21.0038 11.911 20.6612 13.3577 20 14.6667C19.216 16.2353 18.0108 17.5546 16.5194 18.477C15.0279 19.3993 13.3091 19.8882 11.5555 19.8889C10.089 19.8927 8.64234 19.5501 7.33332 18.8889L1 21L3.11111 14.6667C2.44992 13.3577 2.10729 11.911 2.11111 10.4445C2.11179 8.69086 2.60068 6.97208 3.52302 5.48064C4.44536 3.98919 5.76472 2.78399 7.33332 2.00003C8.64234 1.33884 10.089 0.996208 11.5555 1.00003H12.1111C14.427 1.1278 16.6145 2.10532 18.2546 3.74543C19.8947 5.38553 20.8722 7.57297 21 9.88891V10.4445Z" stroke="#717F96" stroke-width="2" stroke-linecap="round" stroke-linejoin="round"/>
<path d="M16.1502 13.0371C15.8462 13.0371 15.5737 12.9877 15.3327 12.889C15.0918 12.7903 14.8983 12.6442 14.7522 12.4506C14.61 12.2571 14.535 12.0241 14.5271 11.7516H15.6052C15.621 11.9056 15.6744 12.0241 15.7652 12.1071C15.856 12.186 15.9745 12.2255 16.1206 12.2255C16.2707 12.2255 16.3892 12.192 16.4761 12.1248C16.5629 12.0537 16.6064 11.957 16.6064 11.8346C16.6064 11.7319 16.5708 11.647 16.4998 11.5798C16.4326 11.5127 16.3477 11.4574 16.245 11.414C16.1463 11.3705 16.0041 11.3212 15.8185 11.2659C15.55 11.1829 15.3308 11.1 15.161 11.0171C14.9911 10.9341 14.845 10.8117 14.7226 10.6498C14.6002 10.4879 14.5389 10.2766 14.5389 10.0159C14.5389 9.6289 14.6791 9.32678 14.9595 9.10957C15.2399 8.88841 15.6052 8.77783 16.0555 8.77783C16.5136 8.77783 16.8828 8.88841 17.1632 9.10957C17.4436 9.32678 17.5937 9.63087 17.6135 10.0219H16.5175C16.5096 9.88758 16.4603 9.78292 16.3694 9.70788C16.2786 9.6289 16.1621 9.58941 16.0199 9.58941C15.8975 9.58941 15.7988 9.62298 15.7237 9.69011C15.6487 9.7533 15.6112 9.84611 15.6112 9.96854C15.6112 10.1028 15.6744 10.2075 15.8007 10.2825C15.9271 10.3575 16.1246 10.4385 16.3931 10.5254C16.6617 10.6162 16.8789 10.7031 17.0448 10.786C17.2146 10.869 17.3607 10.9894 17.4831 11.1474C17.6056 11.3054 17.6668 11.5087 17.6668 11.7576C17.6668 11.9945 17.6056 12.2097 17.4831 12.4033C17.3646 12.5968 17.1909 12.7508 16.9618 12.8653C16.7328 12.9799 16.4622 13.0371 16.1502 13.0371Z" fill="#717F96"/>
<path d="M13.9173 8.83716V12.9957H12.9043V10.5018L11.9743 12.9957H11.1568L10.2208 10.4959V12.9957H9.20782V8.83716H10.4045L11.5715 11.7162L12.7266 8.83716H13.9173Z" fill="#717F96"/>
<path d="M7.06759 13.0371C6.7635 13.0371 6.491 12.9877 6.25009 12.889C6.00919 12.7903 5.81567 12.6442 5.66955 12.4506C5.52738 12.2571 5.45234 12.0241 5.44444 11.7516H6.52259C6.53839 11.9056 6.5917 12.0241 6.68254 12.1071C6.77337 12.186 6.89185 12.2255 7.03797 12.2255C7.18804 12.2255 7.30652 12.192 7.3934 12.1248C7.48029 12.0537 7.52373 11.957 7.52373 11.8346C7.52373 11.7319 7.48819 11.647 7.4171 11.5798C7.34996 11.5127 7.26505 11.4574 7.16237 11.414C7.06364 11.3705 6.92147 11.3212 6.73585 11.2659C6.4673 11.1829 6.24812 11.1 6.0783 11.0171C5.90848 10.9341 5.76236 10.8117 5.63993 10.6498C5.5175 10.4879 5.45629 10.2766 5.45629 10.0159C5.45629 9.6289 5.59649 9.32678 5.87689 9.10957C6.15728 8.88841 6.52259 8.77783 6.97281 8.77783C7.43092 8.77783 7.80018 8.88841 8.08058 9.10957C8.36097 9.32678 8.51105 9.63087 8.53079 10.0219H7.43487C7.42697 9.88758 7.37761 9.78292 7.28677 9.70788C7.19594 9.6289 7.07944 9.58941 6.93726 9.58941C6.81484 9.58941 6.71611 9.62298 6.64107 9.69011C6.56603 9.7533 6.52852 9.84611 6.52852 9.96854C6.52852 10.1028 6.5917 10.2075 6.71808 10.2825C6.84446 10.3575 7.04192 10.4385 7.31047 10.5254C7.57902 10.6162 7.79623 10.7031 7.9621 10.786C8.13192 10.869 8.27804 10.9894 8.40047 11.1474C8.52289 11.3054 8.58411 11.5087 8.58411 11.7576C8.58411 11.9945 8.52289 12.2097 8.40047 12.4033C8.28199 12.5968 8.10822 12.7508 7.87916 12.8653C7.65011 12.9799 7.37958 13.0371 7.06759 13.0371Z" fill="#717F96"/>
</svg>