<svg width="239" height="200" viewBox="0 0 239 200" fill="none" xmlns="http://www.w3.org/2000/svg">
<g clip-path="url(#clip0_287_991)">
<path d="M123.418 16.2982C115.082 18.5168 107.888 22.8028 101.835 29.1507C101.678 29.3155 101.564 29.4479 101.496 29.5425C101.434 29.6317 101.426 29.7128 101.466 29.7857C101.513 29.8641 101.602 29.9073 101.735 29.9127C100.74 29.9181 99.7472 29.9208 98.7547 29.9235C66.3732 29.956 46.8862 29.9641 40.2993 29.9506C37.9346 29.9452 36.2614 30.0695 35.2824 30.3208C27.5891 32.2962 23.1743 40.3925 25.8807 47.9538C27.3911 52.1668 31.0493 55.5258 35.4967 56.5122C36.5407 56.7446 38.1814 56.8581 40.424 56.8554C50.821 56.8419 56.711 56.8311 58.0913 56.8203C58.6093 56.8176 58.9971 56.9365 59.252 57.1824C62.0587 59.8767 64.7895 62.6006 67.4416 65.3598C67.4498 65.3706 67.4606 65.3787 67.4742 65.3841C67.6531 65.4706 67.7426 65.3841 67.7399 65.122C67.7264 62.398 67.702 59.6848 67.6721 56.9797C67.6721 56.8743 67.7562 56.7878 67.8619 56.7851C67.8619 56.7851 67.8619 56.7851 67.8647 56.7851L90.1122 56.8527L90.0417 63.2249V81.7578C90.0092 81.9118 89.9576 82.0253 89.8899 82.0983C79.5389 92.9807 73.8469 105.976 72.8191 121.085C72.9086 121.05 72.8923 121.064 72.773 121.126C72.7594 121.134 72.7405 121.139 72.7215 121.139C63.9922 121.177 55.3877 122.239 46.9079 124.323C42.7643 125.342 39.5481 128.428 38.5908 132.573C38.3495 133.611 38.3034 135.405 38.4471 137.959C38.8403 144.901 39.4884 151.071 40.3915 156.465C41.4843 162.986 43.407 169.253 46.1622 175.265L48.4021 179.643C47.2333 179.23 45.7012 178.476 43.811 177.376C36.7794 173.293 30.8975 168.226 26.1654 162.17C23.2882 158.489 20.4896 154.162 17.767 149.19C9.68853 134.43 4.49815 118.337 1.97076 101.742C0.321991 90.9053 -0.0793542 79.9877 0.772149 68.9891C0.929433 66.9623 1.24671 64.6788 1.46095 62.9655C2.27991 56.4257 3.73885 50.1508 5.83507 44.1434C10.0248 32.1395 17.4334 21.6408 27.4996 14.1849C32.8771 10.1989 38.7942 7.09118 45.251 4.85632C56.7517 0.878425 68.7975 -0.67544 80.8786 0.270391C94.527 1.33783 108.382 4.48339 119.188 12.8094C119.88 13.3391 121.29 14.5011 123.418 16.2982ZM42.6504 94.0022C42.6504 92.8429 41.7094 91.9052 40.546 91.9052C39.3827 91.9052 38.4417 92.8429 38.4417 94.0022C38.4417 95.1615 39.3827 96.0993 40.546 96.0993C41.7094 96.0993 42.6504 95.1615 42.6504 94.0022Z" fill="#C0EDFF"/>
<path d="M194.277 23.6511C197.667 23.6511 200.414 20.9131 200.414 17.5356C200.414 14.1582 197.667 11.4202 194.277 11.4202C190.888 11.4202 188.141 14.1582 188.141 17.5356C188.141 20.9131 190.888 23.6511 194.277 23.6511Z" fill="#43BCFE"/>
<path d="M177.429 47.5591C178.419 51.5478 178.97 55.2717 178.975 59.4523C178.983 66.9324 178.98 74.4369 178.967 81.9685C178.959 81.9333 178.915 81.9144 178.837 81.909C178.758 81.9063 178.685 81.8712 178.631 81.8144C175.645 78.6391 172.315 75.8746 168.64 73.5181C168.554 73.4641 168.464 73.3533 168.372 73.183C168.407 72.5669 168.293 71.894 168.296 71.3589C168.315 67.6161 168.315 63.8707 168.293 60.1252C168.28 57.8092 168.187 56.0121 168.017 54.7339C167.634 51.8856 166.913 49.1724 165.855 46.5971C160.109 32.9663 146.987 24.7673 132.15 25.6348C127.172 25.9726 122.437 27.3913 117.943 29.891L101.735 29.9126C101.602 29.9072 101.513 29.864 101.466 29.7856C101.426 29.7127 101.434 29.6316 101.496 29.5424C101.564 29.4478 101.678 29.3154 101.835 29.1506C107.888 22.8027 115.082 18.5167 123.418 16.2981C132.026 14.1956 140.451 14.5064 148.698 17.2277C156.269 19.7274 163.046 24.3322 168.236 30.3423C172.594 35.393 175.658 41.1302 177.429 47.5591Z" fill="#8BA5AF"/>
<path d="M132.15 25.6348C132.291 25.8969 132.483 26.1428 132.725 26.3698C133.096 26.7184 133.329 26.9481 133.424 27.0589C135.065 28.9641 136.662 30.7341 138.219 32.3691C141.153 35.4525 144.339 38.0846 147.781 40.2654C152.198 43.0624 157.359 44.8838 162.533 46.0323C163.609 46.2701 164.718 46.4593 165.855 46.5971C166.912 49.1724 167.634 51.8856 168.016 54.7339C168.187 56.0121 168.279 57.8092 168.293 60.1252C168.314 63.8707 168.314 67.6161 168.295 71.3589C168.293 71.894 168.406 72.5669 168.371 73.183C168.32 73.1668 168.268 73.1533 168.222 73.1425C168.146 73.1263 168.097 73.1101 168.078 73.0966C147.387 59.8387 121.511 59.8657 100.85 73.0317C100.772 73.0803 100.717 73.0803 100.688 73.0344L100.704 63.2113L100.766 56.9634C100.956 56.9147 101.121 56.8904 101.262 56.8904C103.231 56.885 108.194 56.8661 116.15 56.8337C118.425 56.8229 120.101 56.6823 121.181 56.4121C124.028 55.696 126.382 54.1853 128.239 51.8856C133.468 45.4053 131.729 35.9362 124.543 31.7313C122.686 30.645 120.486 30.0315 117.943 29.891C122.436 27.3913 127.171 25.9726 132.15 25.6348Z" fill="#C0EDFF"/>
<path d="M101.734 29.9125L117.943 29.8909C120.486 30.0314 122.686 30.6448 124.543 31.7312C131.73 35.9361 133.468 45.4052 128.24 51.8855C126.382 54.1852 124.028 55.6958 121.181 56.412C120.101 56.6822 118.426 56.8227 116.15 56.8335C108.194 56.866 103.231 56.8849 101.263 56.8903C101.122 56.8903 100.956 56.9146 100.766 56.9632L90.1117 56.8525L67.8641 56.7849C67.7584 56.7849 67.6716 56.8714 67.6716 56.9768C67.6716 56.9768 67.6716 56.9768 67.6716 56.9795C67.7014 59.6845 67.7258 62.3977 67.7394 65.1217C67.7394 65.3838 67.6526 65.4703 67.4736 65.3838C67.4601 65.3784 67.4492 65.3703 67.4411 65.3595C64.7889 62.6004 62.0582 59.8764 59.2515 57.1821C58.9965 56.9362 58.6088 56.8173 58.0908 56.82C56.7105 56.8308 50.8205 56.8416 40.4235 56.8552C38.1808 56.8579 36.5402 56.7444 35.4961 56.512C31.0488 55.5256 27.3906 52.1665 25.8801 47.9535C23.1737 40.3923 27.5885 32.296 35.2819 30.3205C36.2609 30.0692 37.934 29.9449 40.2987 29.9503C46.8857 29.9638 66.3726 29.9557 98.7542 29.9233C99.7467 29.9233 100.739 29.9179 101.734 29.9125ZM44.1034 41.8056C44.1766 41.0733 44.239 40.1788 44.2878 39.1195C44.3637 37.4845 42.5251 37.5791 41.4865 38.0196C41.3021 38.098 41.2099 38.2358 41.2099 38.4358V41.6786C41.2099 41.7327 41.1665 41.7786 41.1123 41.7813C41.0933 41.7813 41.077 41.7786 41.0607 41.7678C40.4397 41.4327 39.7916 41.1354 39.111 40.8733C38.2839 40.5517 37.6168 40.7517 37.1124 41.4732C36.8547 41.8435 36.9524 42.4758 36.9849 43.046C36.9985 43.2757 37.0825 43.419 37.2425 43.473C38.2432 43.8108 39.233 44.1243 40.2174 44.4188C40.2689 44.4323 40.2987 44.4837 40.2852 44.535C40.2797 44.5512 40.2743 44.5648 40.2608 44.5756C39.5801 45.3025 38.273 46.5024 38.1537 47.459C37.9829 48.8318 39.5448 49.2291 40.6513 48.9912C40.7408 48.9723 40.8085 48.9237 40.8601 48.8507L42.6743 46.197C42.7095 46.1511 42.7746 46.1375 42.8207 46.17C42.8315 46.1781 42.8424 46.1889 42.8478 46.1997C43.3522 46.9645 44.3447 48.6183 45.1284 48.9561C46.0884 49.3696 47.1596 48.6318 47.4443 47.6725C47.4687 47.5887 47.4497 47.4995 47.3982 47.432L45.1528 44.6404C45.0796 44.5485 45.0959 44.4783 45.2071 44.4323C45.9962 44.0972 46.7555 43.7459 47.4877 43.3784C48.9358 42.6488 48.388 40.9382 47.1596 40.3842C47.0592 40.3409 46.9643 40.3464 46.8694 40.4004L44.2525 41.9029C44.2037 41.9299 44.1441 41.9137 44.1169 41.8651C44.1061 41.8462 44.1034 41.8273 44.1034 41.8056ZM61.8683 41.8056C61.9416 41.0733 62.0012 40.1761 62.0473 39.1168C62.1232 37.4791 60.2846 37.5764 59.246 38.0169C59.0616 38.0953 58.9694 38.2331 58.9694 38.4331V41.6813C58.9721 41.7354 58.9288 41.7813 58.8718 41.7813C58.8555 41.7813 58.8393 41.7786 58.823 41.7705C58.202 41.4354 57.5512 41.1381 56.8705 40.876C56.0407 40.5544 55.3736 40.7571 54.8719 41.4786C54.6143 41.8489 54.7119 42.4839 54.7445 43.0541C54.758 43.2838 54.8421 43.4271 55.0021 43.4811C56.0027 43.8162 56.9952 44.1297 57.9796 44.4215C58.0312 44.435 58.061 44.4864 58.0474 44.5377C58.042 44.5539 58.0366 44.5675 58.023 44.5783C57.3424 45.3106 56.0353 46.5105 55.9159 47.4671C55.7505 48.8426 57.3125 49.2372 58.4189 48.9994C58.5084 48.9804 58.5762 48.9318 58.6277 48.8588L60.4419 46.1997C60.4772 46.1538 60.5423 46.1402 60.5884 46.1727C60.5992 46.1808 60.6101 46.1916 60.6155 46.2024C61.1199 46.9672 62.1151 48.621 62.9015 48.9588C63.8615 49.3723 64.9327 48.6345 65.2174 47.6725C65.2418 47.5887 65.2228 47.4995 65.1713 47.432L62.9205 44.6404C62.8473 44.5485 62.8636 44.4783 62.9748 44.4323C63.7639 44.0972 64.5232 43.7459 65.2554 43.3757C66.7035 42.6434 66.153 40.9328 64.9245 40.3788C64.8242 40.3355 64.7293 40.3409 64.6344 40.395L62.0175 41.9029C61.9687 41.9299 61.909 41.9137 61.8819 41.8651C61.8711 41.8462 61.8683 41.8273 61.8683 41.8056ZM79.6387 41.8056C79.7119 41.0733 79.7716 40.1761 79.8204 39.1168C79.8964 37.4818 78.0578 37.5764 77.0191 38.0169C76.8347 38.0953 76.7425 38.2331 76.7425 38.4331V41.6786C76.7425 41.7327 76.6991 41.7786 76.6422 41.7786C76.6259 41.7786 76.6097 41.7759 76.5934 41.7678C75.9724 41.4327 75.3243 41.1354 74.6436 40.8733C73.8138 40.5517 73.1467 40.7517 72.645 41.4732C72.3874 41.8435 72.485 42.4785 72.5176 43.0487C72.5311 43.2784 72.6152 43.4217 72.7752 43.4757C73.7758 43.8108 74.7656 44.1243 75.75 44.4188C75.8015 44.4323 75.8314 44.4837 75.8178 44.535C75.8124 44.5512 75.807 44.5648 75.7934 44.5756C75.1127 45.3052 73.8057 46.5051 73.6863 47.4617C73.5182 48.8345 75.0802 49.2318 76.1866 48.9939C76.2761 48.975 76.3439 48.9264 76.3954 48.8534L78.2096 46.197C78.2449 46.1511 78.31 46.1375 78.3561 46.17C78.3669 46.1781 78.3777 46.1889 78.3832 46.1997C78.8876 46.9645 79.8801 48.6183 80.6665 48.9561C81.6265 49.3696 82.6976 48.6318 82.9824 47.6725C83.0068 47.5887 82.9878 47.4995 82.9363 47.432L80.6882 44.6404C80.615 44.5485 80.6312 44.4783 80.7424 44.4323C81.5316 44.0972 82.2909 43.7459 83.023 43.3757C84.4711 42.6461 83.9234 40.9355 82.6949 40.3815C82.5946 40.3382 82.4997 40.3437 82.4048 40.3977L79.7879 41.9029C79.7391 41.9299 79.6794 41.9137 79.6523 41.8651C79.6414 41.8462 79.6387 41.8273 79.6387 41.8056ZM97.4037 41.8056C97.4769 41.0733 97.5366 40.1761 97.5854 39.1168C97.6613 37.4818 95.8227 37.5764 94.7841 38.0169C94.5997 38.0953 94.5075 38.2331 94.5075 38.4331V41.6786C94.5075 41.7327 94.4641 41.7786 94.4072 41.7786C94.3909 41.7786 94.3746 41.7759 94.3583 41.7678C93.7373 41.4327 93.0892 41.1354 92.4086 40.8733C91.5788 40.5517 90.9117 40.7517 90.41 41.4732C90.1524 41.8435 90.25 42.4785 90.2825 43.0487C90.2961 43.2784 90.3801 43.4217 90.5401 43.4757C91.5408 43.8108 92.5306 44.1243 93.515 44.4188C93.5665 44.4323 93.5963 44.4837 93.5828 44.535C93.5774 44.5512 93.5719 44.5648 93.5584 44.5756C92.8777 45.3052 91.5706 46.5051 91.4513 47.4617C91.2832 48.8345 92.8452 49.2318 93.9516 48.9939C94.0411 48.975 94.1089 48.9264 94.1604 48.8534L95.9746 46.197C96.0098 46.1511 96.0749 46.1375 96.121 46.17C96.1319 46.1781 96.1427 46.1889 96.1481 46.1997C96.6525 46.9645 97.6451 48.6183 98.4315 48.9561C99.3914 49.3696 100.463 48.6318 100.747 47.6725C100.772 47.5887 100.753 47.4995 100.701 47.432L98.4532 44.6404C98.3799 44.5485 98.3962 44.4783 98.5074 44.4323C99.2965 44.0972 100.056 43.7459 100.788 43.3757C102.236 42.6461 101.688 40.9355 100.46 40.3815C100.36 40.3382 100.265 40.3437 100.17 40.3977L97.5528 41.9029C97.504 41.9299 97.4444 41.9137 97.4173 41.8651C97.4064 41.8462 97.4037 41.8273 97.4037 41.8056ZM115.166 41.8083C115.239 41.076 115.299 40.1788 115.348 39.1195C115.424 37.4845 113.585 37.5791 112.546 38.0196C112.362 38.098 112.27 38.2358 112.27 38.4331V41.6786C112.27 41.7327 112.226 41.7786 112.169 41.7786C112.153 41.7786 112.137 41.7759 112.121 41.7678C111.5 41.4327 110.851 41.1354 110.171 40.8733C109.341 40.5517 108.674 40.7517 108.172 41.4732C107.915 41.8435 108.012 42.4785 108.045 43.0487C108.058 43.2784 108.142 43.4217 108.302 43.4757C109.303 43.8108 110.293 44.1243 111.277 44.4188C111.329 44.4323 111.359 44.4837 111.345 44.535C111.34 44.5512 111.334 44.5648 111.321 44.5756C110.64 45.3052 109.333 46.5051 109.214 47.4617C109.045 48.8345 110.607 49.2318 111.714 48.9939C111.803 48.975 111.871 48.9264 111.923 48.8534L113.737 46.197C113.772 46.1511 113.837 46.1375 113.883 46.17C113.894 46.1781 113.905 46.1889 113.91 46.1997C114.415 46.9645 115.407 48.6183 116.194 48.9561C117.154 49.3696 118.225 48.6318 118.51 47.6725C118.531 47.5887 118.515 47.5022 118.463 47.4347L116.215 44.6404C116.142 44.5485 116.158 44.4783 116.27 44.4323C117.059 44.0999 117.818 43.7486 118.55 43.3784C119.998 42.6488 119.451 40.9382 118.222 40.3842C118.122 40.3409 118.027 40.3464 117.932 40.4004L115.315 41.9056C115.266 41.9326 115.207 41.9164 115.18 41.8678C115.169 41.8489 115.166 41.83 115.166 41.8083Z" fill="white"/>
<path d="M44.1033 41.8058C44.0979 41.8598 44.1385 41.9085 44.1928 41.9166C44.2145 41.9166 44.2335 41.9166 44.2524 41.903L46.8693 40.4005C46.9642 40.3465 47.0591 40.3411 47.1595 40.3843C48.3879 40.9383 48.9357 42.6489 47.4876 43.3785C46.7554 43.7461 45.9961 44.0974 45.207 44.4325C45.0958 44.4784 45.0795 44.5487 45.1528 44.6406L47.3981 47.4321C47.4496 47.4997 47.4686 47.5888 47.4442 47.6726C47.1595 48.632 46.0883 49.3697 45.1283 48.9562C44.3446 48.6184 43.3521 46.9646 42.8477 46.1998C42.8179 46.1512 42.7528 46.1377 42.704 46.1701C42.6932 46.1782 42.6823 46.1863 42.6742 46.1971L40.86 48.8509C40.8085 48.9238 40.7407 48.9725 40.6512 48.9914C39.5448 49.2292 37.9828 48.8319 38.1536 47.4591C38.2729 46.5025 39.58 45.3026 40.2607 44.5757C40.2959 44.5379 40.2959 44.4784 40.258 44.4433C40.2471 44.4325 40.2336 44.4244 40.2173 44.419C39.2329 44.1244 38.2431 43.8109 37.2425 43.4731C37.0825 43.4191 36.9984 43.2758 36.9848 43.0461C36.9523 42.4759 36.8547 41.8436 37.1123 41.4734C37.6167 40.7518 38.2838 40.5519 39.1109 40.8734C39.7915 41.1356 40.4397 41.4328 41.0607 41.7679C41.1095 41.795 41.1691 41.7787 41.1962 41.7301C41.2044 41.7139 41.2098 41.6977 41.2098 41.6787V38.4359C41.2098 38.2359 41.302 38.0981 41.4864 38.0197C42.525 37.5792 44.3636 37.4847 44.2877 39.1196C44.2389 40.1789 44.1765 41.0734 44.1033 41.8058Z" fill="#236FBC"/>
<path d="M61.8685 41.8031C61.8631 41.8571 61.9037 41.9057 61.958 41.9139C61.9797 41.9139 61.9986 41.9138 62.0176 41.9003L64.6345 40.3924C64.7294 40.3384 64.8243 40.333 64.9247 40.3762C66.1531 40.9302 66.7036 42.6408 65.2555 43.3731C64.5233 43.7434 63.764 44.0947 62.9749 44.4298C62.8637 44.4757 62.8474 44.546 62.9207 44.6378L65.1714 47.4294C65.223 47.497 65.242 47.5861 65.2175 47.6699C64.9328 48.6319 63.8617 49.3697 62.9017 48.9562C62.1153 48.6184 61.12 46.9646 60.6156 46.1998C60.5858 46.1512 60.5207 46.1377 60.4719 46.1701C60.4611 46.1782 60.4502 46.1863 60.4421 46.1971L58.6279 48.8562C58.5764 48.9292 58.5086 48.9779 58.4191 48.9968C57.3127 49.2346 55.7507 48.84 55.9161 47.4645C56.0354 46.5079 57.3425 45.308 58.0232 44.5757C58.0584 44.5379 58.0584 44.4784 58.0204 44.4433C58.0096 44.4325 57.996 44.4244 57.9798 44.4189C56.9954 44.1271 56.0029 43.8136 55.0022 43.4785C54.8422 43.4245 54.7582 43.2812 54.7446 43.0515C54.7121 42.4813 54.6144 41.8463 54.8721 41.4761C55.3737 40.7545 56.0408 40.5519 56.8706 40.8734C57.5513 41.1356 58.2021 41.4328 58.8231 41.7679C58.8747 41.7922 58.937 41.7733 58.9614 41.7247C58.9696 41.7112 58.9723 41.695 58.9723 41.6787V38.4305C58.9696 38.2305 59.0618 38.0927 59.2462 38.0143C60.2848 37.5738 62.1234 37.4766 62.0475 39.1142C62.0014 40.1735 61.9417 41.0707 61.8685 41.8031Z" fill="#236FBC"/>
<path d="M79.6392 41.8058C79.6338 41.8598 79.6745 41.9085 79.7287 41.9166C79.7504 41.9166 79.7694 41.9166 79.7884 41.9031L82.4052 40.3978C82.5001 40.3438 82.5951 40.3384 82.6954 40.3816C83.9238 40.9356 84.4716 42.6462 83.0235 43.3759C82.2913 43.7461 81.532 44.0974 80.7429 44.4325C80.6317 44.4784 80.6154 44.5487 80.6887 44.6406L82.9367 47.4321C82.9883 47.4997 83.0073 47.5889 82.9828 47.6726C82.6981 48.632 81.6269 49.3697 80.667 48.9563C79.8806 48.6185 78.888 46.9646 78.3836 46.1998C78.3538 46.1512 78.2887 46.1377 78.2399 46.1701C78.2291 46.1782 78.2182 46.1863 78.2101 46.1971L76.3959 48.8536C76.3444 48.9265 76.2766 48.9752 76.1871 48.9941C75.0807 49.2319 73.5187 48.8347 73.6868 47.4618C73.8061 46.5052 75.1132 45.3054 75.7939 44.5757C75.8291 44.5379 75.8291 44.4784 75.7912 44.4433C75.7803 44.4325 75.7668 44.4244 75.7505 44.419C74.7661 44.1244 73.7763 43.8109 72.7757 43.4758C72.6157 43.4218 72.5316 43.2786 72.518 43.0489C72.4855 42.4787 72.3879 41.8436 72.6455 41.4734C73.1472 40.7519 73.8143 40.5519 74.6441 40.8735C75.3247 41.1356 75.9729 41.4329 76.5939 41.7679C76.6454 41.7923 76.7078 41.7733 76.7322 41.7247C76.7403 41.7112 76.743 41.695 76.743 41.6788V38.4332C76.743 38.2332 76.8352 38.0954 77.0196 38.017C78.0582 37.5766 79.8968 37.482 79.8209 39.1169C79.7721 40.1762 79.7124 41.0734 79.6392 41.8058Z" fill="#236FBC"/>
<path d="M97.4039 41.8058C97.3984 41.8598 97.4391 41.9085 97.4933 41.9166C97.515 41.9166 97.534 41.9166 97.553 41.9031L100.17 40.3978C100.265 40.3438 100.36 40.3384 100.46 40.3816C101.688 40.9356 102.236 42.6462 100.788 43.3759C100.056 43.7461 99.2967 44.0974 98.5076 44.4325C98.3964 44.4784 98.3801 44.5487 98.4533 44.6406L100.701 47.4321C100.753 47.4997 100.772 47.5889 100.747 47.6726C100.463 48.632 99.3916 49.3697 98.4316 48.9563C97.6452 48.6185 96.6527 46.9646 96.1483 46.1998C96.1185 46.1512 96.0534 46.1377 96.0046 46.1701C95.9937 46.1782 95.9829 46.1863 95.9747 46.1971L94.1606 48.8536C94.109 48.9265 94.0412 48.9752 93.9517 48.9941C92.8453 49.2319 91.2833 48.8347 91.4515 47.4618C91.5708 46.5052 92.8779 45.3054 93.5585 44.5757C93.5938 44.5379 93.5938 44.4784 93.5558 44.4433C93.545 44.4325 93.5314 44.4244 93.5151 44.419C92.5308 44.1244 91.541 43.8109 90.5403 43.4758C90.3803 43.4218 90.2962 43.2786 90.2827 43.0489C90.2501 42.4787 90.1525 41.8436 90.4101 41.4734C90.9118 40.7519 91.5789 40.5519 92.4087 40.8735C93.0894 41.1356 93.7375 41.4329 94.3585 41.7679C94.41 41.7923 94.4724 41.7733 94.4968 41.7247C94.5049 41.7112 94.5077 41.695 94.5077 41.6788V38.4332C94.5077 38.2332 94.5999 38.0954 94.7843 38.017C95.8229 37.5766 97.6615 37.482 97.5855 39.1169C97.5367 40.1762 97.4771 41.0734 97.4039 41.8058Z" fill="#236FBC"/>
<path d="M115.167 41.8085C115.161 41.8625 115.202 41.9112 115.256 41.9193C115.278 41.9193 115.297 41.9193 115.316 41.9057L117.933 40.4005C118.028 40.3465 118.122 40.3411 118.223 40.3843C119.451 40.9383 119.999 42.6489 118.551 43.3785C117.819 43.7488 117.059 44.1001 116.27 44.4325C116.159 44.4784 116.143 44.5487 116.216 44.6406L118.464 47.4348C118.516 47.5024 118.532 47.5888 118.51 47.6726C118.225 48.632 117.154 49.3697 116.194 48.9562C115.408 48.6184 114.415 46.9646 113.911 46.1998C113.881 46.1512 113.816 46.1377 113.767 46.1701C113.756 46.1782 113.746 46.1863 113.737 46.1971L111.923 48.8536C111.872 48.9265 111.804 48.9752 111.714 48.9941C110.608 49.2319 109.046 48.8346 109.214 47.4618C109.333 46.5052 110.641 45.3053 111.321 44.5757C111.356 44.5379 111.356 44.4784 111.319 44.4433C111.308 44.4325 111.294 44.4244 111.278 44.419C110.293 44.1244 109.304 43.8109 108.303 43.4758C108.143 43.4218 108.059 43.2786 108.045 43.0489C108.013 42.4787 107.915 41.8436 108.173 41.4734C108.675 40.7518 109.342 40.5519 110.171 40.8734C110.852 41.1356 111.5 41.4328 112.121 41.7679C112.173 41.7922 112.235 41.7733 112.26 41.7247C112.268 41.7112 112.27 41.695 112.27 41.6787V38.4332C112.27 38.2359 112.363 38.0981 112.547 38.0197C113.586 37.5792 115.424 37.4847 115.348 39.1196C115.299 40.1789 115.24 41.0761 115.167 41.8085Z" fill="#236FBC"/>
<path d="M142.463 185.718C145.462 185.18 147.808 184.699 149.5 184.27C165.014 180.343 178.457 170.555 186.866 157.054C192.845 147.452 195.931 136.892 196.124 125.369L196.062 121.996C196.078 121.766 196.124 121.602 196.2 121.502C201.838 114.124 201.873 103.985 196.205 96.6154C193.301 92.8402 189.445 90.3189 184.637 89.0541C183.777 87.6705 182.877 86.4518 181.936 85.3978C180.913 84.2547 179.924 83.1116 178.966 81.9685C178.98 74.437 178.983 66.9325 178.974 59.4523C178.969 55.2718 178.419 51.5479 177.429 47.5592C182.825 47.4106 188.132 47.8997 193.347 49.0212C204.772 51.483 215.307 57.3256 223.044 66.111C227.846 71.5671 231.553 77.7393 234.165 84.6331C236.337 90.3594 237.707 96.1776 238.279 102.088C239.328 112.949 238.211 123.434 234.922 133.546C228.931 151.968 216.302 167.185 199.15 176.176C186.169 182.978 171.368 186.045 156.586 186.113C152.865 186.132 148.838 186.126 144.505 186.096C143.77 186.091 143.154 185.907 142.463 185.718ZM212.061 154.408C212.061 152.471 210.486 150.901 208.541 150.901C206.597 150.901 205.021 152.471 205.021 154.408C205.021 156.346 206.597 157.916 208.541 157.916C210.486 157.916 212.061 156.346 212.061 154.408Z" fill="#C0EDFF"/>
<path d="M100.766 56.9633L100.704 63.2112L90.041 63.2247L90.1115 56.8525L100.766 56.9633Z" fill="#6F838C"/>
<path d="M100.704 63.2112L100.688 73.0343C100.541 73.1965 100.395 73.3262 100.248 73.4235C96.5954 75.8691 93.2382 78.6661 90.1766 81.8143C90.1278 81.8657 90.0817 81.8468 90.041 81.7576V63.2247L100.704 63.2112Z" fill="#8BA5AF"/>
<path d="M168.371 73.1831C168.463 73.3533 168.553 73.4641 168.64 73.5182C172.314 75.8747 175.644 78.6392 178.63 81.8145C178.684 81.8712 178.757 81.9064 178.836 81.9091C178.915 81.9145 178.958 81.9334 178.966 81.9685C179.923 83.1116 180.913 84.2547 181.936 85.3978C182.877 86.4518 183.777 87.6705 184.636 89.0541C184.124 89.0082 183.622 88.9352 183.134 88.8325C182.475 88.6947 181.979 88.6164 181.645 88.5947C176.846 88.2786 172.431 89.4244 168.398 92.0376L165.125 88.9866C142.731 69.9375 108.69 75.6828 93.7643 100.896C90.4423 106.509 88.4139 112.581 87.6817 119.11C87.5895 119.918 87.4783 120.761 87.3509 121.634L83.3862 121.334C79.9667 121.115 76.5525 121.031 73.1438 121.088C73.057 121.088 72.9485 121.088 72.8184 121.088C73.8461 105.979 79.5382 92.9834 89.8891 82.1009C89.9569 82.028 90.0084 81.9145 90.041 81.7604C90.0816 81.8496 90.1277 81.8685 90.1766 81.8172C93.2382 78.6689 96.5954 75.872 100.248 73.4263C100.395 73.329 100.541 73.1993 100.687 73.0372C100.717 73.0831 100.772 73.0831 100.85 73.0345C121.511 59.8685 147.387 59.8415 168.078 73.0993C168.097 73.1128 168.146 73.1291 168.222 73.1453C168.268 73.1561 168.32 73.1696 168.371 73.1858V73.1831Z" fill="#43BCFE"/>
<path d="M165.126 88.9864C164.621 88.9729 164.207 88.8485 163.881 88.6188C161.085 86.6434 158.2 85.0382 155.22 83.8059C152.532 82.6952 149.942 81.8656 147.445 81.3197C136.568 78.9362 126.171 80.1145 116.254 84.8517C112.108 86.8326 108.135 89.5998 104.341 93.1534C103.574 93.8723 102.643 94.8586 101.548 96.1125C100.222 97.634 99.3513 98.6717 98.9391 99.2284C96.8374 102.069 95.1236 105.087 93.7975 108.287C93.5209 108.954 93.3202 109.43 93.1982 109.714C92.9189 110.354 92.729 110.832 92.6287 111.143C91.4816 114.613 90.8362 116.796 90.6871 117.691C90.4539 119.094 90.2234 120.515 89.9983 121.953L87.3516 121.634C87.479 120.761 87.5902 119.918 87.6824 119.11C88.4146 112.581 90.443 106.509 93.765 100.896C108.691 75.6826 142.732 69.9373 165.126 88.9864Z" fill="#1B5895"/>
<path d="M165.126 88.9865L168.399 92.0375C168.076 92.3213 167.737 92.5969 167.376 92.8698C164.084 95.3452 161.701 98.7799 160.391 102.674C160.353 102.788 160.244 102.866 160.12 102.866L144.356 102.839C139.448 95.6236 129.398 95.5722 124.508 102.815C122.26 106.714 122.138 110.673 124.142 114.692C124.262 114.932 124.419 115.124 124.617 115.264C124.522 115.359 124.525 115.478 124.625 115.621C125.447 116.802 126.442 117.818 127.611 118.664C127.814 118.813 127.909 119.007 127.895 119.25C126.933 134.532 126.39 143.029 126.274 144.739C126.046 148.044 126.884 150.89 129.56 152.827C132.223 154.752 135.743 154.965 138.588 153.287C141.435 151.606 142.808 148.712 142.604 145.396C142.162 138.237 141.617 129.509 140.964 119.207C140.95 119.01 141.029 118.818 141.178 118.686L143.334 116.78C146.308 116.88 149.218 116.951 152.063 116.991C153.026 117.005 154.522 117.121 155.77 117.064C157.608 116.983 159.214 117.037 160.936 116.902C162.341 120.134 164.41 122.866 167.146 125.098C167.77 125.971 168.816 126.874 170.289 127.806C173.689 129.96 177.236 131.084 180.933 131.179C181.03 131.181 181.085 131.135 181.098 131.041L181.299 129.495C183.067 129.244 184.173 129.063 184.618 128.955C189.035 127.874 192.724 125.598 195.685 122.131C195.785 122.01 195.913 121.966 196.062 121.996L196.124 125.369C194.76 126.56 193.564 127.474 192.531 128.109C189.111 130.214 185.383 131.249 181.348 131.214C181.204 131.214 181.082 131.317 181.06 131.457C179.203 144.164 172.228 155.454 161.749 162.932C151.203 170.452 138.208 173.082 125.533 170.787C119.435 169.682 113.658 167.315 108.202 163.686C108.246 163.54 108.286 163.396 108.322 163.256C109.469 158.616 110.337 153.473 110.92 147.825C111.161 145.509 111.448 142.018 111.787 137.351C111.92 135.502 111.917 134.219 111.776 133.5C111.071 129.909 109.279 127.279 106.402 125.615C105.303 124.979 103.617 124.404 101.339 123.882C97.5721 123.02 93.7918 122.377 89.998 121.953C90.2231 120.515 90.4536 119.094 90.6868 117.691C90.836 116.797 91.4814 114.613 92.6285 111.143C92.7288 110.833 92.9186 110.354 93.198 109.714C93.32 109.43 93.5207 108.954 93.7973 108.287C95.1233 105.087 96.8372 102.069 98.9388 99.2285C99.351 98.6718 100.222 97.6341 101.548 96.1127C102.643 94.8588 103.573 93.8724 104.341 93.1536C108.135 89.6 112.107 86.8327 116.254 84.8519C126.171 80.1146 136.568 78.9364 147.445 81.3199C149.942 81.8658 152.532 82.6954 155.219 83.8061C158.2 85.0384 161.085 86.6436 163.881 88.619C164.206 88.8487 164.621 88.973 165.126 88.9865Z" fill="#236FBC"/>
<path d="M184.637 89.0541C189.445 90.3189 193.301 92.8402 196.206 96.6154C201.873 103.985 201.838 114.124 196.2 121.502C196.124 121.602 196.078 121.766 196.062 121.996C195.913 121.966 195.785 122.01 195.685 122.131C192.724 125.598 189.036 127.874 184.618 128.955C184.173 129.063 183.067 129.244 181.299 129.495C176.084 129.749 171.368 128.285 167.146 125.098C164.41 122.866 162.341 120.134 160.936 116.902L160.44 115.513C160.375 115.335 160.204 115.213 160.014 115.216L144.283 115.281L131.209 115.254C129.433 112.268 129.018 109.09 129.97 105.722C130.054 105.417 130.244 104.939 130.534 104.285C130.743 103.817 130.925 103.336 131.079 102.836H144.356L160.12 102.866C160.245 102.866 160.353 102.788 160.391 102.674C161.701 98.78 164.084 95.3453 167.377 92.8699C167.737 92.597 168.076 92.3213 168.399 92.0376C172.431 89.4244 176.846 88.2786 181.646 88.5947C181.98 88.6164 182.476 88.6947 183.135 88.8325C183.623 88.9352 184.125 89.0082 184.637 89.0541ZM175.745 101.928C174.978 102.371 174.286 102.936 173.698 103.601C172.629 104.806 171.938 106.298 171.713 107.89C171.319 110.633 172.339 113.392 174.424 115.224C176.225 116.805 178.625 117.532 181.001 117.21C183.227 116.91 185.234 115.718 186.56 113.911C187.056 113.232 187.447 112.486 187.715 111.692C188.594 109.117 188.133 106.274 186.489 104.098C185.668 103.012 184.591 102.144 183.349 101.574C180.908 100.453 178.072 100.585 175.745 101.928Z" fill="#8BA5AF"/>
<path d="M40.5458 96.0991C41.708 96.0991 42.6501 95.1602 42.6501 94.0021C42.6501 92.8439 41.708 91.905 40.5458 91.905C39.3836 91.905 38.4414 92.8439 38.4414 94.0021C38.4414 95.1602 39.3836 96.0991 40.5458 96.0991Z" fill="#43BCFE"/>
<path d="M144.355 102.839H131.078L124.508 102.815C129.397 95.5722 139.447 95.6235 144.355 102.839Z" fill="#323743"/>
<path d="M186.489 104.098C185.288 103.412 184.509 103.017 184.157 102.917C181.73 102.223 179.436 102.479 177.269 103.682C176.941 103.866 176.857 104.131 177.022 104.479C178.939 108.549 180.265 112.792 181 117.21C178.625 117.532 176.225 116.805 174.424 115.224C174.457 114.821 174.351 114.381 174.107 113.9C173.822 113.34 173.649 112.932 173.592 112.675C172.965 109.889 173.611 107.403 175.533 105.22C175.899 104.806 176.233 104.436 176.531 104.109C176.67 103.958 176.697 103.736 176.602 103.555L175.745 101.928C178.072 100.585 180.908 100.453 183.349 101.574C184.591 102.144 185.667 103.012 186.489 104.098Z" fill="#236FBC"/>
<path d="M175.745 101.928L176.602 103.555C176.697 103.736 176.67 103.958 176.532 104.109C176.233 104.436 175.9 104.806 175.534 105.22C173.611 107.403 172.966 109.889 173.592 112.676C173.649 112.932 173.823 113.34 174.107 113.9C174.351 114.381 174.457 114.821 174.425 115.224C172.339 113.392 171.32 110.633 171.713 107.89C171.938 106.298 172.63 104.806 173.698 103.601C174.286 102.936 174.978 102.371 175.745 101.928Z" fill="#1B5895"/>
<path d="M186.489 104.098C188.132 106.274 188.593 109.116 187.715 111.692C187.446 112.486 187.056 113.232 186.559 113.91C185.233 115.718 183.227 116.91 181 117.21C180.265 112.792 178.939 108.549 177.022 104.479C176.856 104.131 176.941 103.866 177.269 103.682C179.435 102.479 181.73 102.223 184.157 102.917C184.509 103.017 185.287 103.412 186.489 104.098Z" fill="#43BCFE"/>
<path d="M124.508 102.814L131.079 102.836C130.925 103.336 130.743 103.817 130.534 104.285C130.244 104.939 130.054 105.417 129.97 105.722C129.018 109.089 129.433 112.267 131.209 115.253L124.617 115.264C124.419 115.124 124.262 114.932 124.142 114.691C122.138 110.673 122.26 106.714 124.508 102.814Z" fill="#6F838C"/>
<path d="M124.617 115.264L131.209 115.254L144.283 115.281C144.177 115.697 143.86 116.197 143.334 116.781L141.178 118.686C141.029 118.818 140.95 119.01 140.964 119.207C141.617 129.509 142.162 138.237 142.604 145.396C142.808 148.712 141.436 151.606 138.588 153.287C135.744 154.965 132.224 154.752 129.561 152.827C126.884 150.89 126.046 148.044 126.274 144.739C126.391 143.029 126.933 134.532 127.896 119.25C127.909 119.007 127.814 118.813 127.611 118.664C126.442 117.818 125.447 116.802 124.625 115.621C124.525 115.478 124.522 115.359 124.617 115.264Z" fill="#323743"/>
<path d="M160.936 116.902C159.214 117.037 157.609 116.983 155.77 117.064C154.523 117.121 153.026 117.005 152.063 116.991C149.219 116.951 146.309 116.88 143.334 116.78C143.86 116.197 144.177 115.697 144.283 115.281L160.014 115.216C160.204 115.216 160.375 115.335 160.44 115.513L160.936 116.902Z" fill="#1B5895"/>
<path d="M72.8186 121.085C72.9487 121.088 73.0572 121.091 73.144 121.085C76.5527 121.028 79.9668 121.112 83.3864 121.331L85.9572 128.036C80.238 127.579 74.9717 127.455 70.161 127.657C65.3747 127.86 60.8731 128.301 56.6563 128.979C53.5187 129.484 50.7445 130.049 48.331 130.679C46.2809 131.211 44.8518 132.911 44.8681 135.067C44.8681 135.324 44.8952 135.924 44.9413 136.87C45.2423 143.158 45.8579 149.252 46.7935 155.146C47.8592 161.861 50.0286 168.528 53.3072 175.143C51.0537 175.357 48.6727 175.398 46.1616 175.262C43.4064 169.25 41.4838 162.983 40.3909 156.462C39.4879 151.068 38.8398 144.899 38.4466 137.956C38.3028 135.402 38.3489 133.608 38.5903 132.57C39.5475 128.425 42.7637 125.339 46.9074 124.32C55.3871 122.236 63.9917 121.174 72.7209 121.137C72.7399 121.137 72.7589 121.131 72.7724 121.123C72.8918 121.061 72.908 121.047 72.8186 121.083V121.085Z" fill="#65FEB3"/>
<path d="M87.3516 121.634L89.9983 121.953C93.7921 122.377 97.5723 123.02 101.339 123.882C103.617 124.404 105.304 124.979 106.402 125.615C109.279 127.279 111.072 129.909 111.777 133.5C111.918 134.219 111.92 135.503 111.788 137.351C111.449 142.018 111.161 145.509 110.92 147.825C110.337 153.473 109.469 158.616 108.322 163.256C108.287 163.396 108.246 163.54 108.203 163.686C108.048 163.95 107.931 164.28 107.853 164.672C107.755 165.166 107.679 165.504 107.622 165.68C107.107 167.312 106.551 168.931 105.952 170.536C105.076 172.89 104.056 175.206 102.896 177.484C101.998 179.332 100.878 181.078 99.5356 182.718C98.714 183.721 97.8842 184.724 97.0435 185.726C90.8471 191.842 83.6988 196.557 75.6014 199.878C75.2434 200.027 74.9234 200.041 74.6387 199.924C66.8124 196.714 58.997 191.72 53.3131 185.877C51.5477 184.064 49.9098 181.986 48.4021 179.643L46.1621 175.265C48.6732 175.4 51.0542 175.36 53.3077 175.146C54.4141 176.943 55.6588 178.657 57.0418 180.284C58.0588 181.459 59.1625 182.564 60.3475 183.597C64.445 187.164 69.1446 190.239 74.4434 192.825C74.8204 193.009 75.1864 193.017 75.5417 192.852C80.8405 190.366 85.635 187.239 89.9278 183.475C91.3189 182.251 92.5419 181.016 93.5914 179.767C95.5819 177.397 97.1601 174.868 98.3289 172.179C100.824 166.428 102.529 160.608 103.443 154.716C103.997 151.141 104.338 148.731 104.468 147.485C104.647 145.742 104.91 142.383 105.258 137.408C105.258 137.394 105.29 137.075 105.35 136.446C105.477 135.119 105.312 133.919 104.856 132.846C104.089 131.749 103.115 131.041 101.941 130.722C96.8347 129.333 91.986 128.598 85.9577 128.039L83.3869 121.334L87.3516 121.634Z" fill="#23FF87"/>
<path d="M181.298 129.495L181.098 131.041C181.084 131.135 181.03 131.181 180.932 131.179C177.236 131.084 173.689 129.96 170.288 127.806C168.816 126.874 167.769 125.971 167.146 125.098C171.368 128.284 176.084 129.749 181.298 129.495Z" fill="#1B5895"/>
<path d="M196.124 125.369C195.932 136.892 192.846 147.452 186.866 157.054C178.457 170.555 165.015 180.343 149.5 184.27C147.808 184.699 145.463 185.18 142.463 185.718C137.305 186.256 132.139 186.275 126.968 185.769C124.107 185.332 121.455 184.802 119.012 184.18C113.406 182.759 108.034 180.527 102.896 177.484C104.056 175.206 105.076 172.89 105.952 170.536C106.551 168.931 107.107 167.312 107.622 165.68C107.679 165.504 107.755 165.167 107.853 164.672C107.931 164.28 108.048 163.95 108.202 163.686C113.659 167.315 119.435 169.682 125.534 170.787C138.208 173.082 151.203 170.452 161.75 162.932C172.228 155.454 179.203 144.164 181.06 131.457C181.082 131.317 181.204 131.211 181.348 131.214C185.383 131.249 189.112 130.214 192.531 128.109C193.564 127.474 194.76 126.56 196.124 125.369Z" fill="#43BCFE"/>
<path d="M85.9574 128.039C91.9857 128.598 96.8344 129.333 101.941 130.722C103.115 131.041 104.088 131.749 104.856 132.846C104.726 133.151 104.587 133.289 104.444 133.254C98.5591 131.835 92.7315 130.922 86.9608 130.517C86.8821 130.511 86.7465 130.533 86.554 130.581C86.3913 130.514 86.2096 130.476 86.0089 130.463C81.9114 130.236 77.8003 130.117 73.532 130.338C73.372 130.346 71.4981 130.452 67.9104 130.649C62.6468 130.944 57.5893 131.671 52.7379 132.833C50.8939 133.276 49.66 133.746 49.039 134.241C47.9001 135.151 47.3794 136.505 47.477 138.297C47.7292 142.861 48.0709 147.144 48.5075 151.147C48.8031 153.868 49.1421 156.273 49.5245 158.367C50.5549 164.034 52.239 169.633 54.666 174.946C55.2735 176.473 56.0653 178.065 57.0415 179.721C57.1337 179.875 57.1337 180.065 57.0415 180.284C55.6585 178.657 54.4138 176.943 53.3074 175.146C50.0288 168.531 47.8594 161.864 46.7937 155.149C45.8581 149.255 45.2425 143.161 44.9415 136.873C44.8954 135.927 44.871 135.327 44.8683 135.07C44.852 132.914 46.2811 131.214 48.3313 130.681C50.7448 130.052 53.5189 129.487 56.6565 128.982C60.8733 128.303 65.3749 127.863 70.1612 127.66C74.9719 127.458 80.2382 127.582 85.9574 128.039Z" fill="#13AA52"/>
<path d="M86.5536 130.581C86.578 131.535 86.8193 132.676 86.8926 133.389C87.3644 137.975 87.0742 142.539 86.0248 147.085C85.1353 147.217 84.254 147.714 83.3835 148.582C80.1619 151.79 76.9511 154.984 73.7539 158.17C73.6671 158.259 73.5234 158.259 73.4366 158.17C71.4516 156.173 70.2232 154.935 69.754 154.457C68.954 153.638 68.2734 153.119 67.7093 152.898C64.6206 151.684 61.4315 154.587 62.5244 157.783C62.7142 158.337 63.4111 159.216 64.6125 160.413C66.6273 162.415 68.6422 164.423 70.6543 166.434C70.9716 166.753 71.4353 167.096 72.0428 167.463C71.9967 167.596 71.9451 167.725 71.8882 167.85C71.8313 167.971 71.7472 168.077 71.6306 168.161C67.0558 171.439 61.9929 173.609 56.4472 174.665C55.8696 174.776 55.2785 174.871 54.6683 174.946C52.2412 169.633 50.5572 164.034 49.5267 158.367C49.1444 156.273 48.8054 153.868 48.5098 151.146C48.0732 147.144 47.7315 142.861 47.4793 138.297C47.3817 136.505 47.9024 135.151 49.0413 134.24C49.6623 133.746 50.8962 133.276 52.7402 132.832C57.5916 131.67 62.6491 130.943 67.9127 130.649C71.5004 130.452 73.3743 130.346 73.5343 130.338C77.8026 130.117 81.9137 130.235 86.0112 130.462C86.2119 130.476 86.3936 130.514 86.5563 130.581H86.5536Z" fill="#45D78D"/>
<path d="M104.856 132.846C105.311 133.919 105.477 135.119 105.349 136.445C105.29 137.075 105.26 137.394 105.257 137.407C104.91 142.383 104.647 145.742 104.468 147.485C104.338 148.73 103.996 151.141 103.443 154.716C102.529 160.607 100.823 166.428 98.3286 172.179C97.1598 174.868 95.5816 177.397 93.5911 179.767C92.5417 181.016 91.3186 182.251 89.9275 183.475C85.6347 187.239 80.8403 190.366 75.5414 192.852C75.1862 193.017 74.8201 193.009 74.4431 192.825C69.1443 190.239 64.4447 187.164 60.3472 183.596C59.1622 182.564 58.0585 181.459 57.0416 180.283C57.1338 180.064 57.1338 179.875 57.0416 179.721C56.0653 178.065 55.2735 176.473 54.666 174.946C55.2762 174.871 55.8673 174.776 56.445 174.665C61.9906 173.609 67.0535 171.438 71.6283 168.161C71.7449 168.077 71.829 167.971 71.8859 167.85C71.9429 167.725 71.9944 167.596 72.0405 167.463C73.7435 168.061 75.2431 167.712 76.5421 166.42C80.5881 162.391 84.6313 158.362 88.6746 154.33C89.8407 153.165 90.6217 152.154 90.4156 150.587C90.1661 148.693 89.0787 147.563 87.1506 147.195C86.8442 147.139 86.4699 147.101 86.0252 147.085C87.0747 142.539 87.3648 137.975 86.893 133.389C86.8198 132.676 86.5784 131.535 86.554 130.581C86.7465 130.533 86.8821 130.511 86.9608 130.516C92.7315 130.922 98.5591 131.835 104.444 133.254C104.587 133.289 104.726 133.151 104.856 132.846Z" fill="#19CC66"/>
<path d="M72.0405 167.463C71.433 167.096 70.9693 166.753 70.652 166.434C68.6399 164.423 66.625 162.415 64.6101 160.413C63.4088 159.216 62.7119 158.337 62.5221 157.783C61.4292 154.586 64.6183 151.684 67.707 152.898C68.2711 153.119 68.9517 153.638 69.7517 154.457C70.2208 154.935 71.4493 156.173 73.4343 158.17C73.5211 158.259 73.6648 158.259 73.7516 158.17C76.9488 154.984 80.1596 151.79 83.3812 148.582C84.2517 147.714 85.133 147.217 86.0225 147.085C86.4672 147.101 86.8414 147.139 87.1479 147.196C89.076 147.563 90.1634 148.693 90.4129 150.587C90.619 152.154 89.838 153.165 88.6719 154.33C84.6286 158.362 80.5853 162.391 76.5393 166.42C75.2404 167.712 73.7408 168.061 72.0377 167.463H72.0405Z" fill="white"/>
<path d="M208.541 157.916C210.485 157.916 212.061 156.346 212.061 154.408C212.061 152.471 210.485 150.901 208.541 150.901C206.597 150.901 205.021 152.471 205.021 154.408C205.021 156.346 206.597 157.916 208.541 157.916Z" fill="#43BCFE"/>
<path d="M102.895 177.484C108.034 180.527 113.406 182.759 119.011 184.18C121.455 184.802 124.107 185.332 126.968 185.769C125.902 186.053 124.812 186.18 123.697 186.153C122.897 186.134 122.496 186.123 122.488 186.123C114.173 186.126 105.856 186.123 97.5392 186.11C97.4497 186.11 97.3765 186.072 97.325 185.999C97.2301 185.867 97.1379 185.775 97.043 185.726C97.8836 184.724 98.7134 183.721 99.5351 182.718C100.877 181.078 101.997 179.332 102.895 177.484Z" fill="#C0EDFF"/>
</g>
<defs>
<clipPath id="clip0_287_991">
<rect width="238.323" height="200" fill="white" transform="translate(0.337891)"/>
</clipPath>
</defs>
</svg>
