<svg width="66" height="26" viewBox="0 0 66 26" fill="none" xmlns="http://www.w3.org/2000/svg">
<path d="M0.814986 23.5V16.9077C0.814986 15.0118 1.17045 13.0406 1.88139 10.994C2.61387 8.92578 3.60488 6.97609 4.8544 5.14488C6.12547 3.29214 7.54735 1.73023 9.12003 0.459158L14.549 3.98153C13.2779 5.89891 12.2115 7.90246 11.3498 9.99219C10.5096 12.0604 10.1003 14.344 10.1218 16.843V23.5H0.814986ZM17.1989 23.5V16.9077C17.1989 15.0118 17.5543 13.0406 18.2653 10.994C18.9978 8.92578 19.9888 6.97609 21.2383 5.14488C22.5094 3.29214 23.9312 1.73023 25.5039 0.459158L30.9329 3.98153C29.6618 5.89891 28.5954 7.90246 27.7337 9.99219C26.8935 12.0604 26.4841 14.344 26.5057 16.843V23.5H17.1989ZM49.0779 2.81818V9.41051C49.0779 11.3063 48.7117 13.2776 47.9792 15.3242C47.2683 17.3493 46.2881 19.2882 45.0385 21.141C43.789 22.9722 42.3671 24.5449 40.7729 25.859L35.3439 22.3366C36.5288 20.5485 37.5629 18.6204 38.4462 16.5522C39.3295 14.4625 39.7711 12.1035 39.7711 9.47514V2.81818H49.0779ZM65.3972 2.81818V9.41051C65.3972 11.3063 65.031 13.2776 64.2985 15.3242C63.5875 17.3493 62.6073 19.2882 61.3578 21.141C60.1083 22.9722 58.6971 24.5449 57.1245 25.859L51.6955 22.3366C52.8588 20.5485 53.8822 18.6204 54.7654 16.5522C55.6487 14.4625 56.0904 12.1035 56.0904 9.47514V2.81818H65.3972Z" fill="#FF5777" fill-opacity="0.6"/>
</svg>
