<svg width="26" height="26" viewBox="0 0 26 26" fill="none" xmlns="http://www.w3.org/2000/svg">
<path d="M25 12.3334C25.0046 14.0932 24.5934 15.8292 23.8 17.4C22.8592 19.2823 21.413 20.8656 19.6232 21.9724C17.8335 23.0792 15.771 23.6659 13.6666 23.6667C11.9068 23.6713 10.1708 23.2601 8.59999 22.4667L1 25L3.53333 17.4C2.73991 15.8292 2.32874 14.0932 2.33333 12.3334C2.33415 10.229 2.92081 8.16649 4.02762 6.37676C5.13443 4.58703 6.71766 3.14079 8.59999 2.20004C10.1708 1.40661 11.9068 0.99545 13.6666 1.00004H14.3333C17.1124 1.15336 19.7374 2.32638 21.7055 4.29451C23.6736 6.26264 24.8466 8.88756 25 11.6667V12.3334Z" stroke="white" stroke-width="2" stroke-linecap="round" stroke-linejoin="round"/>
<path d="M19.1782 15.4432C18.8133 15.4432 18.4863 15.3839 18.1972 15.2655C17.9082 15.147 17.6759 14.9716 17.5006 14.7394C17.33 14.5072 17.2399 14.2276 17.2305 13.9006H18.5242C18.5432 14.0854 18.6072 14.2276 18.7162 14.3271C18.8252 14.4219 18.9674 14.4693 19.1427 14.4693C19.3228 14.4693 19.465 14.429 19.5692 14.3484C19.6735 14.2631 19.7256 14.147 19.7256 14.0001C19.7256 13.8769 19.683 13.775 19.5977 13.6944C19.5171 13.6139 19.4152 13.5475 19.292 13.4954C19.1735 13.4433 19.0029 13.384 18.7802 13.3177C18.4579 13.2182 18.1949 13.1186 17.9911 13.0191C17.7873 12.9196 17.612 12.7727 17.4651 12.5784C17.3181 12.3841 17.2447 12.1305 17.2447 11.8177C17.2447 11.3533 17.4129 10.9908 17.7494 10.7301C18.0859 10.4647 18.5242 10.332 19.0645 10.332C19.6142 10.332 20.0574 10.4647 20.3938 10.7301C20.7303 10.9908 20.9104 11.3557 20.9341 11.8249H19.619C19.6095 11.6637 19.5503 11.5381 19.4413 11.4481C19.3323 11.3533 19.1925 11.3059 19.0219 11.3059C18.8749 11.3059 18.7565 11.3462 18.6664 11.4268C18.5764 11.5026 18.5314 11.614 18.5314 11.7609C18.5314 11.922 18.6072 12.0476 18.7588 12.1376C18.9105 12.2277 19.1474 12.3248 19.4697 12.4291C19.792 12.5381 20.0526 12.6424 20.2517 12.7419C20.4554 12.8414 20.6308 12.9859 20.7777 13.1755C20.9246 13.3651 20.9981 13.6091 20.9981 13.9077C20.9981 14.192 20.9246 14.4503 20.7777 14.6825C20.6355 14.9148 20.427 15.0996 20.1521 15.237C19.8773 15.3745 19.5526 15.4432 19.1782 15.4432Z" fill="white"/>
<path d="M16.501 10.4033V15.3936H15.2854V12.4009L14.1694 15.3936H13.1884L12.0652 12.3938V15.3936H10.8496V10.4033H12.2856L13.686 13.8581L15.0722 10.4033H16.501Z" fill="white"/>
<path d="M8.28372 15.4432C7.9188 15.4432 7.5918 15.3839 7.30272 15.2655C7.01363 15.147 6.78141 14.9716 6.60607 14.7394C6.43546 14.5072 6.34542 14.2276 6.33594 13.9006H7.62972C7.64867 14.0854 7.71265 14.2276 7.82165 14.3271C7.93065 14.4219 8.07282 14.4693 8.24817 14.4693C8.42826 14.4693 8.57043 14.429 8.67469 14.3484C8.77895 14.2631 8.83108 14.147 8.83108 14.0001C8.83108 13.8769 8.78843 13.775 8.70313 13.6944C8.62256 13.6139 8.52067 13.5475 8.39745 13.4954C8.27898 13.4433 8.10837 13.384 7.88563 13.3177C7.56337 13.2182 7.30035 13.1186 7.09657 13.0191C6.89278 12.9196 6.71744 12.7727 6.57052 12.5784C6.42361 12.3841 6.35015 12.1305 6.35015 11.8177C6.35015 11.3533 6.51839 10.9908 6.85487 10.7301C7.19135 10.4647 7.62972 10.332 8.16998 10.332C8.71971 10.332 9.16282 10.4647 9.4993 10.7301C9.83578 10.9908 10.0159 11.3557 10.0396 11.8249H8.72445C8.71497 11.6637 8.65574 11.5381 8.54674 11.4481C8.43774 11.3533 8.29793 11.3059 8.12732 11.3059C7.98041 11.3059 7.86193 11.3462 7.77189 11.4268C7.68185 11.5026 7.63683 11.614 7.63683 11.7609C7.63683 11.922 7.71265 12.0476 7.8643 12.1376C8.01595 12.2277 8.25291 12.3248 8.57517 12.4291C8.89743 12.5381 9.15808 12.6424 9.35713 12.7419C9.56091 12.8414 9.73625 12.9859 9.88317 13.1755C10.0301 13.3651 10.1035 13.6091 10.1035 13.9077C10.1035 14.192 10.0301 14.4503 9.88317 14.6825C9.74099 14.9148 9.53247 15.0996 9.2576 15.237C8.98273 15.3745 8.65811 15.4432 8.28372 15.4432Z" fill="white"/>
</svg>
